<!-- Generator: Adobe Illustrator 18.0.0, SVG Export Plug-In  -->
<svg version="1.1"
	 xmlns="http://www.w3.org/2000/svg" xmlns:xlink="http://www.w3.org/1999/xlink" xmlns:a="http://ns.adobe.com/AdobeSVGViewerExtensions/3.0/"
	 x="0px" y="0px" width="151.1px" height="157.3px" viewBox="0 0 151.1 157.3" enable-background="new 0 0 151.1 157.3"
	 xml:space="preserve">
<defs>
</defs>
<g>
	<circle fill-rule="evenodd" clip-rule="evenodd" fill="#EC3B5F" cx="75.6" cy="75.4" r="75.4"/>
	<path fill-rule="evenodd" clip-rule="evenodd" fill="#EC3B5F" d="M129.6,25.8c6.7,4.4,10.2,11.1,12.9,18.4c2.9,8-0.1,15.5-2.9,22.7
		c-8.7,22.5-23.1,40-46,49.5c-1.7,0.7-3.3,1.6-4.8,2.5c-0.5,0.3-1.1,0.4-1.7,0.5c-6.5,1.2-13,2.7-19.6,3.6c-5.5,0.7-10.3-0.2-15-3.1
		c-7-4.2-13.5-9-19.2-14.9c-1.8-1.9-4.2-3.8-2.3-7c5.8,0.9,11.5,2.7,17.4,3.5c17,2.2,32.7-1.4,47.3-10.2c5-3.4,9.7-7.2,13.8-11.7
		c-4.2,4.5-8.9,8.3-14,11.8c-20.3,12.1-41.5,14-63.7,6c-0.5-0.2-1.1-0.1-1.6-0.1C24.1,95.4,22,90,19.3,85.1c-3.2-5.8-5-12-5.8-18.5
		c-0.2-1.8-0.4-3.8,1.7-4.7c1.9-0.9,2.9,0.7,4.1,1.9c4.8,5.1,10.7,8.5,17.2,10.9c10.7,3.7,21.4,4.8,32.2,0.8c0.5-0.2,1-0.4,1.5-0.5
		c2.9,0,5.5-1.3,7.9-2.8c0.4-0.3,0.9-0.5,1.4-0.6c12.2-5,19.8-14.4,25.1-26.1c2.9-7.7,4.8-15.6,2.8-23.9c-0.4-1.8-0.5-3.6,0.7-5.2
		c3.1-2.1,4.9,0.4,7,1.9c2.6,6.1,9.2,8,13,12.8c0.9,7-0.2,13.7-2,19.5c2-5.9,2.6-12.9,2.2-19.9C128,28.7,127.5,26.9,129.6,25.8z"/>
	<path fill-rule="evenodd" clip-rule="evenodd" fill="#D32C42" d="M31.1,98.2c4.9,9,13.6,13.8,21.6,19.4c8.8,6.2,18.1,3.1,27.2,1.6
		c2.7-0.4,5.2-1.6,8-1.3c-1.2,5.3-6.1,4.8-9.8,5.9c-1.7,0.5-3.6-0.1-5.4-0.3c-0.7-0.1-0.1,0.8-0.2,0.1c0-0.1,0.2-0.1,0.5-0.1
		c11.2,1.3,22.4,1.9,33.5-1c8.6-2.2,16.5-5.5,22.5-12.3c0.8-1,1.8-1.7,3-2.3c1-0.4,2-0.7,3-1.1c2.8,0,4.6-3.6,7.8-2
		c-2.5,8.8-8,15.6-14.3,22c-2.8,0.9-4.4,3-5.7,5.3c-3.4,3.8-8,6-12.1,8.8c-1.1,3.2-3.9,4.1-6.6,5.2c-5.5,2.2-11,4.7-17.3,4
		c-8.1,0-16.2,0-24.3,0c-9.1-0.1-17.6-1.8-23.9-9.3c-2.6-1.7-5.6-2.8-7.7-5.3c-3-2.6-5.5-5.9-9.2-7.8C6,112.3-0.7,93.2,0.1,71.3
		c0.3-8.6,1.8-17,5.7-24.7C8.7,45.3,7.9,42.2,9,40c2.1-5,5-9.5,8.9-13.2c1.8,1.5,0.9,3.3,0.7,5.1C18,37,17.2,42.1,16,47
		c-1.5,5.8,0.4,10.4,4.3,14.4c3.8,3.9,8,7.5,13,9.8c1.8,0.8,3.8,1.4,4.6,3.6c-0.1,1.5-1.8,0.9-2.4,1.6c-7.7-2.9-14.2-7.5-20.1-13.4
		C16.8,75.6,20,87.3,30,96C30.3,96.8,31.8,97,31.1,98.2z"/>
	<path fill-rule="evenodd" clip-rule="evenodd" fill="#EC3B5F" d="M31,14.6c9-7.2,19.4-11.4,30.8-13.1C66,1.9,70,0.7,74.2,1
		c2.2,0.2,4.5,0.1,5.2,2.8c-2.1,3-5.3,0.8-7.9,1.7c5.3-0.7,10.3,0,15.2,1.9c10.9,9.5,10.9,26.4,0.1,37.8C80.1,52.3,72,57.2,62.6,60
		c-0.5,0.3-1.1,0.4-1.7,0.5c-6.8-0.3-13.5,0.9-20.3-1.6c-12.4-4.5-18.3-11.7-18.8-24.6c0-1.1-0.2-2.2-0.4-3.2
		c-0.1-0.6-0.2-1.1-0.1-1.7c1.1-3.6,1.7-7.4,5.1-9.9C27.9,17.8,29.8,16.6,31,14.6z"/>
	<path fill-rule="evenodd" clip-rule="evenodd" fill="#EC3B5F" d="M37.6,75.3c-6.9-2.8-12.9-6.8-18.5-11.9C11.8,56.8,13.3,49,15,41
		c1-4.7,1.9-9.4,2.9-14.1c0.3-0.3,0.5-0.6,0.8-1c0.8-0.2,1.6-0.5,2.5-0.2c1.3,1,1.5,2.3,1.2,3.8l0,0c-3.5,24.3,22.1,34.5,39.3,29.5
		l0,0c9.9-2,18.3-6.8,24.9-14.5C94.3,35.2,96.6,25,91,13.7c-0.8-1.7-2.5-3.3-1-5.5c6.5-1.1,11.8,1.6,16.6,5.5
		c2.9,10.6,3,21.1-1,31.4c-5.4,12.5-14.2,21.9-26.5,28l0,0c-2.8,1.4-5.9,2.1-8.8,3.3l0,0c-8.3,2.5-16.7,2.7-25.2,1.6
		C42.5,77.6,39.8,77.2,37.6,75.3z"/>
	<path fill-rule="evenodd" clip-rule="evenodd" fill="#EB3B5F" d="M133.6,109.1c-4.5,2.7-7,7.6-11.9,10c-16.8,8.4-34.1,9.6-53.3,4.7
		c7.1-2.4,14.1-1.5,19.4-6l0,0c28.8-10.6,46-31.5,53.8-60.7c0.6-2.4-0.5-5.8,3.1-7c4.7,9.2,4.9,19.2,4.5,29.2
		c-2.3,5.5-3.6,11.3-6.5,16.5C140.2,100.7,137.6,105.4,133.6,109.1z"/>
	<path fill-rule="evenodd" clip-rule="evenodd" fill="#5BA4B9" d="M38.8,140.8c7.3,3.5,14.5,7.3,22.9,7.7c0.4,0.4,0.9,0.6,1.5,0.8
		c7.7,0.3,15.5,0.3,23.2,0c0.5-0.2,1-0.5,1.5-0.8c8.2-0.8,15.6-4.2,22.9-7.6c8.7,1.4,17.5,2.8,26.2,4.1c3.1,0.5,7.5,1,7.6,3.9
		c0.1,3.1-4.5,2.8-7.2,3.5c-8.6,2.4-17.6,2.7-26.4,3.4c-24.1,2-48.3,1.7-72.4-0.1c-9-0.7-18.1-1.3-26.8-4c-1.7-0.5-4.1-0.6-4.3-2.7
		c-0.2-2.5,2.5-2.9,4.3-3.4c7.7-2.1,15.7-2.7,23.6-3.7C36.6,141.9,37.9,142,38.8,140.8z"/>
	<path fill-rule="evenodd" clip-rule="evenodd" fill="#CB203E" d="M144.8,50.2c-2.3,2.8-1.9,6.5-2.9,9.7
		c-6.5,22-18.9,39.8-38.7,51.9c-4.7,2.9-9.5,6.1-15.4,6.1c7.5-5,16.4-7.7,23.4-13.8c18.5-15.8,29.7-35.4,31.3-60
		C143.8,46,144.8,47.9,144.8,50.2z"/>
	<path fill-rule="evenodd" clip-rule="evenodd" fill="#DF435D" d="M127.2,30.5c-2.2,0.8-4.8,2.8-4.5-2c0.1-1.2-0.7-2.2-1.9-2.2
		c-4.9,0.2-5.1-4-6.7-6.9c0.8-0.7,1.6-0.6,2.1-0.3c-3.2-2.3-7.2-4-10.8-6.4c-1-0.7-1.8-1.2-1.5-2.5c1-2.4,2.6-2.7,4.8-1.6
		c7.7,4.1,15.7,7.8,20,16.2c-0.2,0.6-0.3,1.2-0.6,1.8c-0.5,1.1,0.2,2,0.6,3C128.5,30.4,128.1,30.8,127.2,30.5z"/>
	<path fill-rule="evenodd" clip-rule="evenodd" fill="#E7435C" d="M67,1c11.9-2.5,23.1,0.2,34.2,4.3c0.5,1.7,3.2,3.3,0.2,5.1
		c-6-1.9-12.3-2.4-18.4-4.1c-3-3.8-7-5.3-11.8-4.8C69.8,1.7,68.3,2,67,1z"/>
	<path fill-rule="evenodd" clip-rule="evenodd" fill="#E54558" d="M142.9,104.8c-2.5,0.6-3.9,3.7-6.9,3.2c-0.6-1.1-0.1-2.2,0.6-3
		c4.8-6.2,7.7-13.5,10.6-20.6c0.3-0.8,0.5-1.8,1.8-1.4C148.7,90.8,147.1,98.1,142.9,104.8z"/>
	<path fill-rule="evenodd" clip-rule="evenodd" fill="#C9213F" d="M148.9,83c-3.6,8.7-7.6,17.3-13,25.1c-0.8,0.4-1.5,0.7-2.3,1.1
		c3.7-8.1,9.4-15.3,12.1-23.9c0.7-2.2,1.1-4.6,2.3-6.6c1.4-2.2,0.8,0.7,1.3,0.8C149.2,80.6,149.1,81.8,148.9,83z"/>
	<path fill-rule="evenodd" clip-rule="evenodd" fill="#CC223F" d="M127.1,26.2c0.5-0.5,1-0.9,1.5-1.4c0.3,0.3,0.7,0.7,1,1
		c-0.3,9,0,18.1-3.4,26.7c-0.4,1.1-0.7,2.4-2.9,3.9c2.9-9.1,4.5-17.4,3.8-25.9c0.3-0.4,0.7-0.8,1-1.2
		C127.4,28.4,126.3,27.6,127.1,26.2z"/>
	<path fill-rule="evenodd" clip-rule="evenodd" fill="#C32234" d="M67,1c3.7,0.1,7.4-0.1,11.1,0.4c2.1,0.3,4.6,1.1,5.3,3.8
		c-1.9,1.7-3.2,0.8-4.3-0.9c-3-3-6.8-2-10.3-2.2c-2.3-0.1-4.7,0.4-7-0.5C63.5,1.3,65.3,1.2,67,1z"/>
	<path fill-rule="evenodd" clip-rule="evenodd" fill="#C03D40" d="M102,9.7c1.1-1.7-3.3-2.5-0.8-4.4c2.7,0.6,5.2,1.7,7.4,3.3
		c-2-0.3-3.1,1.1-4.3,2.3C103,11.4,102.4,10.8,102,9.7z"/>
	<path fill-rule="evenodd" clip-rule="evenodd" fill="#CE2140" d="M22.3,29.4c-0.3-1.1-0.7-2.2-1-3.3c-0.3-2.8,1.9-4.4,3.3-6.4
		c0.1-0.2,0.3-0.4,0.6-0.4c0.7-0.4,1.3-0.3,1.7,0.4C25.3,22.9,23.8,26.2,22.3,29.4z"/>
	<path fill-rule="evenodd" clip-rule="evenodd" fill="#B53D25" d="M21.9,127.8c4.2,1.3,7.3,3.7,9.2,7.8
		C27.5,133.5,24.3,131,21.9,127.8z"/>
	<path fill-rule="evenodd" clip-rule="evenodd" fill="#B23626" d="M9,40c0.5,6.4,0.5,6.4-3.2,6.5C6.4,44.2,7.2,41.9,9,40z"/>
	<path fill-rule="evenodd" clip-rule="evenodd" fill="#D15545" d="M24.5,19.7c-0.7,2.4-1.6,4.6-3.3,6.4c-0.9-0.1-1.8-0.2-2.7-0.2
		C20.3,23.5,22,21.2,24.5,19.7z"/>
	<path fill-rule="evenodd" clip-rule="evenodd" fill="#B63F29" d="M122.9,132.1c0.3-3.5,2-5.5,5.7-5.3
		C127,129,125.1,130.8,122.9,132.1z"/>
	<path fill-rule="evenodd" clip-rule="evenodd" fill="#C14738" d="M26.8,19.7c-0.6-0.1-1.1-0.2-1.7-0.4c1.4-2.3,3.6-3.6,5.9-4.7
		C30.7,17.2,29,18.6,26.8,19.7z"/>
	<path fill-rule="evenodd" clip-rule="evenodd" fill="#F8D2DC" d="M102,9.7c0.7,0.4,1.5,0.8,2.2,1.2c6.3,3.3,12.5,6.7,18.7,12.7
		c-4.5-0.2-6-3.6-8.8-4.1c-1.5-1.6-3.4-2.6-5.3-3.4c-1.7,0.4-2.4-1.1-3.5-1.8c-4.7-2.8-9.8-4.6-15.3-5.4c-1.1,0.8-2.1,0.5-3.2,0
		c-6.5-2.2-13.3-2.6-20.2-2.6c3.8-3.2,8.4-1.1,12.5-2c1.3,1,2.7,1.4,4.3,0.9C89.8,5.8,95.8,8,102,9.7z"/>
	<path fill-rule="evenodd" clip-rule="evenodd" fill="#CE203F" d="M31.1,98.2c-0.1-0.9-2-0.9-1-2.3c7,2.4,14.1,3.9,21.4,4.8
		c13.1,1.7,25-1.5,36.7-6.7c2.8-1.2,5.6-2.4,8.4-3.6l0.1,0.1c-8.8,8.2-20,10.6-31.4,11.8C53.7,103.7,42.2,102.1,31.1,98.2z"/>
	<path fill-rule="evenodd" clip-rule="evenodd" fill="#CE1F42" d="M79.1,73.1c2.2-3.1,6-4,8.7-6.2c7-5.8,12.8-12.6,16.5-21.1
		c1-0.2,1.5,0,1.1,1.1C100.1,59.2,92.2,68.7,79.1,73.1z"/>
	<path fill-rule="evenodd" clip-rule="evenodd" fill="#CD2242" d="M105.4,46.9c-0.4-0.4-0.7-0.7-1.1-1.1c4.2-10.4,4.6-21,1-31.6
		c1.5,0,2.5,0.9,3.5,1.8c0.8,8.8,2.1,17.5-1.1,26.1C107,43.8,106.7,45.6,105.4,46.9z"/>
	<path fill-rule="evenodd" clip-rule="evenodd" fill="#CE2040" d="M37.6,75.3c10.8,3.5,21.8,2.1,32.8,1.1c-6,3.4-12.7,3.8-19.2,3.1
		c-5.3-0.6-10.8-0.5-15.7-3.1C36.2,76,36.9,75.6,37.6,75.3z"/>
	<path fill-rule="evenodd" clip-rule="evenodd" fill="#CC1C3F" d="M96.6,90.5c5.5-5.2,11-10.4,16.5-15.6
		C109,81.7,104,87.4,96.6,90.5L96.6,90.5z"/>
	<path fill-rule="evenodd" clip-rule="evenodd" fill="#C91B3A" d="M122,59.8c-0.7,4.1-1.7,7.8-5.6,9.8
		C118.3,66.4,120.1,63.1,122,59.8z"/>
	<path fill-rule="evenodd" clip-rule="evenodd" fill="#CE1F41" d="M70.4,76.4c2.5-2.3,5.6-3,8.8-3.3C76.7,75.4,73.8,76.6,70.4,76.4z
		"/>
	<path fill-rule="evenodd" clip-rule="evenodd" fill="#A85025" d="M87.8,148.6c0,0.2,0,0.4-0.1,0.7c-8.6,1.4-17.3,1.3-25.9,0.1
		c0-0.3-0.1-0.5-0.1-0.8C70.4,148.6,79.1,148.6,87.8,148.6z"/>
	<path fill-rule="evenodd" clip-rule="evenodd" fill="#CE2142" d="M58.2,11.9c8.2,0,15.7,4.6,16.5,10.7c1.3,10.3-3.5,15.3-13.6,19.7
		c-9.7,4.2-22.1-1.9-23-10.6c-0.7-6.8,2.8-11.3,7.1-15C48.7,13.7,53.1,11.5,58.2,11.9z"/>
	<path fill-rule="evenodd" clip-rule="evenodd" fill="#CD2140" d="M86.8,8.8c1.1,0,2.1,0,3.2,0c1.6,5.1,4.5,9.7,4.6,15.5
		c0.3,15.1-8.3,24.1-20,31c-3.8,2.2-8.1,4.1-12.9,3.5c1.4-1.7,3.5-1.7,5.3-2.4c13.2-4.7,27-16.9,26.4-32.4
		C93,18.1,89.7,13.6,86.8,8.8z"/>
	<path fill-rule="evenodd" clip-rule="evenodd" fill="#CE2140" d="M61.7,58.9c-8.9,4.6-23.9,1.6-32.1-6.3
		c-6.7-6.4-10.5-13.7-7.3-23.2c2.2,3.9,0.3,8.3,1.8,12.3C27.8,51.8,38.2,58,48.6,58.8C52.9,59.1,57.3,58.9,61.7,58.9z"/>
	<path fill-rule="evenodd" clip-rule="evenodd" fill="#FCA8C3" d="M127.1,26.2c0.5,1,1.5,1.8,1.1,3.2c-2.1-0.1-3.8-1.2-3.7-3.1
		C124.6,24.7,126.2,26,127.1,26.2z"/>
	<path fill-rule="evenodd" clip-rule="evenodd" fill="#EB3B5F" d="M58.9,14.1c7.2,0,12,3.1,13.4,8.6c1.5,5.9-2,13.3-8.3,16.1
		c-4.6,2.1-9.4,3.5-14.7,1.9c-9.6-2.9-12.5-12.4-5.8-19.9C47.6,16.4,52.6,13.7,58.9,14.1z"/>
</g>
</svg>