<!-- Generator: Adobe Illustrator 18.0.0, SVG Export Plug-In  -->
<svg version="1.1"
	 xmlns="http://www.w3.org/2000/svg" xmlns:xlink="http://www.w3.org/1999/xlink" xmlns:a="http://ns.adobe.com/AdobeSVGViewerExtensions/3.0/"
	 x="0px" y="0px" width="1484.8px" height="779px" viewBox="0 0 1484.8 779" enable-background="new 0 0 1484.8 779"
	 xml:space="preserve">
<defs>
</defs>
<rect x="48" y="0" fill="#277291" width="1395" height="723"/>
<polygon fill="#299AB5" points="840.1,7.2 569,715.5 253.5,734.1 1451.5,734.1 1451.5,0.1 "/>
<line fill="none" stroke="#2E8B98" stroke-miterlimit="10" x1="1451.3" y1="730.1" x2="112" y2="730.1"/>
<rect x="900" y="160" fill="#277291" width="148" height="115"/>
<g opacity="0.65">
	
		<image overflow="visible" opacity="0.75" width="599" height="389" xlink:href="EC246D1C.png"  transform="matrix(1 0 0 1 156 117.9763)">
	</image>
	<g>
		<rect x="207" y="169" fill="#193942" width="496" height="286"/>
	</g>
</g>
<path fill="#277291" d="M1475,80.5c0,6.5-7,11.5-15,11.5H726.3c-8,0-14.3-5.1-14.3-11.5V67.7c0-6.5,6.3-11.7,14.3-11.7H1460
	c8,0,15,5.3,15,11.7V80.5z"/>
<polygon fill="#2AB38F" points="54,10 138,10 145.9,701.3 56,779 "/>
<polygon fill="#78CEEE" points="56,779 145.9,701.3 1453,700.2 1451.5,779 "/>
<g opacity="0.64">
	<defs>
		<polygon id="SVGID_5_" opacity="0.64" points="54,10 138,10 145.9,701.3 56,779 		"/>
	</defs>
	<clipPath id="SVGID_6_">
		<use xlink:href="#SVGID_5_"  overflow="visible"/>
	</clipPath>
	<g clip-path="url(#SVGID_6_)">
		
			<image overflow="visible" width="626" height="626" xlink:href="EC246D1C.jpg"  transform="matrix(0.1406 -2.110100e-002 0 0.2204 51.0237 16.6047)">
		</image>
		
			<image overflow="visible" width="626" height="626" xlink:href="EC246D1B.jpg"  transform="matrix(0.1406 -2.110100e-002 0 0.2204 51.0237 143.6047)">
		</image>
		
			<image overflow="visible" width="626" height="626" xlink:href="EC246D24.jpg"  transform="matrix(0.1406 -2.110100e-002 0 0.2204 51.0237 268.6047)">
		</image>
		
			<image overflow="visible" width="626" height="626" xlink:href="EC246D27.jpg"  transform="matrix(0.1406 -2.110100e-002 0 0.2204 51.0237 395.6047)">
		</image>
		
			<image overflow="visible" width="626" height="626" xlink:href="EC246D25.jpg"  transform="matrix(0.1406 -2.110100e-002 0 0.2204 51.0237 527.6047)">
		</image>
		
			<image overflow="visible" width="626" height="626" xlink:href="EC246D2B.jpg"  transform="matrix(0.1406 -2.110100e-002 0 0.2204 57.0237 633.6047)">
		</image>
	</g>
</g>
<line fill="none" stroke="#2E8B98" stroke-miterlimit="10" x1="583.2" y1="700" x2="588.3" y2="776.6"/>
<line fill="none" stroke="#2E8B98" stroke-miterlimit="10" x1="770.4" y1="700" x2="846.4" y2="776.6"/>
<linearGradient id="SVGID_7_" gradientUnits="userSpaceOnUse" x1="789.4398" y1="19.4143" x2="790.9454" y2="105.2212">
	<stop  offset="0" style="stop-color:#00BAC3"/>
	<stop  offset="0.4888" style="stop-color:#9CD6D3"/>
	<stop  offset="1" style="stop-color:#00617C"/>
</linearGradient>
<path opacity="0.84" fill="url(#SVGID_7_)" d="M1477.1,67.5c0,6.5-5.3,11.9-11.7,11.9H115.3c-6.5,0-11.7-5.3-11.7-11.9l0,0
	c0-6.5,5.3-11.9,11.7-11.9h1350.1C1471.8,55.6,1477.1,60.9,1477.1,67.5L1477.1,67.5z"/>
<path fill="#B2ED7A" d="M103.5,67.5c0,0,28.5-8.5,47.5-2.5s57,4,71,0s42-3,53,2s42,5,59,1s28-7,48,1s37-4,49-3s34,13,51,8
	s60-14,70-8s47,7,59,1s46-6,61-1s36,0,48-2s33-3,47,5s36,2,40-1s30-6,38,1s30,2,45-1s27-3,41,2s38,1,44-2s23-7,33,0s34-3,44-3
	s403,7.3,413,5s12-2.5,12-2.5s4,14.5-23,14.5S115.3,79.3,115.3,79.3S103,76.9,103.5,67.5z"/>
<line fill="none" stroke="#2E8B98" stroke-miterlimit="10" x1="859.3" y1="698.1" x2="958.2" y2="776.6"/>
<line fill="none" stroke="#2E8B98" stroke-miterlimit="10" x1="944.8" y1="698.1" x2="1074.2" y2="776.6"/>
<line fill="none" stroke="#2E8B98" stroke-miterlimit="10" x1="1045" y1="698.1" x2="1174.4" y2="776.6"/>
<line fill="none" stroke="#2E8B98" stroke-miterlimit="10" x1="1145.2" y1="698.1" x2="1274.6" y2="776.6"/>
<line fill="none" stroke="#2E8B98" stroke-miterlimit="10" x1="1245.4" y1="698.1" x2="1374.8" y2="776.6"/>
<line fill="none" stroke="#2E8B98" stroke-miterlimit="10" x1="1345.6" y1="698.1" x2="1475" y2="776.6"/>
<linearGradient id="SVGID_8_" gradientUnits="userSpaceOnUse" x1="182.9524" y1="738.8516" x2="258.3577" y2="738.8516">
	<stop  offset="0" style="stop-color:#CD7CB1"/>
	<stop  offset="0.5" style="stop-color:#C14B99"/>
	<stop  offset="0.7356" style="stop-color:#BD3292"/>
	<stop  offset="1" style="stop-color:#B91B8B"/>
</linearGradient>
<line fill="url(#SVGID_8_)" stroke="#2E8B98" stroke-miterlimit="10" x1="258.4" y1="701.1" x2="183" y2="776.6"/>
<linearGradient id="SVGID_9_" gradientUnits="userSpaceOnUse" x1="380.0237" y1="92.2518" x2="391.0237" y2="92.2518">
	<stop  offset="0" style="stop-color:#282880"/>
	<stop  offset="9.705802e-002" style="stop-color:#2A2C83"/>
	<stop  offset="0.1988" style="stop-color:#2F398B"/>
	<stop  offset="0.3026" style="stop-color:#384E98"/>
	<stop  offset="0.4073" style="stop-color:#456BAB"/>
	<stop  offset="0.4888" style="stop-color:#5187BD"/>
	<stop  offset="0.601" style="stop-color:#3B5C99"/>
	<stop  offset="0.722" style="stop-color:#273478"/>
	<stop  offset="0.8329" style="stop-color:#191860"/>
	<stop  offset="0.9292" style="stop-color:#100651"/>
	<stop  offset="1" style="stop-color:#0D004C"/>
</linearGradient>
<path fill="url(#SVGID_9_)" d="M380,42.1v103.1c0,0,4,11.3,11,0V42.1C391,42.1,386,24.6,380,42.1z"/>
<g>
	<rect x="906" y="167" fill="#FFFFFF" width="66" height="21"/>
	<rect x="977" y="167" fill="#FFFFFF" width="66" height="21"/>
	<rect x="906" y="194" fill="#FFFFFF" width="66" height="21"/>
	<rect x="977" y="194" fill="#FFFFFF" width="66" height="21"/>
	<rect x="906" y="221" fill="#FFFFFF" width="66" height="21"/>
	<rect x="977" y="221" fill="#FFFFFF" width="66" height="21"/>
	<rect x="906" y="248" fill="#FFFFFF" width="66" height="21"/>
	<rect x="977" y="248" fill="#FFFFFF" width="66" height="21"/>
</g>
<g>
	<rect x="854.8" y="347.7" fill="#FFFFFF" width="120.2" height="5.6"/>
	<g>
		<path fill="#B3C1A7" d="M861.4,338c2.9-6.9,6.7-13.4,10.1-20c1.1-2.1,2.3-4.2,3.5-6.3c0.3-0.4,0.3-0.9,0.3-1.4c0-3.4,0-6.8,0-10.2
			c0-0.7-0.2-1.2-0.7-1.7c-0.5-0.5-1.2-0.8-1.2-1.6c5.3,0,10.6,0,16,0c-0.2,0.8-0.9,1.2-1.5,1.7c-0.3,0.4-0.5,0.7-0.5,1.2
			c0,3.6,0,7.2,0,10.9c0,1.1,0.6,2,1.1,2.9c2.6,5.5,5.3,11,7.9,16.6c1.2,2.6,2.7,5.1,3.4,7.9c0.8,3.5-1.2,9-7.1,9
			c-7.9,0-15.8,0-23.8,0c-3.6,0-5.9-1.7-7.1-5.2c-0.1-0.3-0.1-0.6-0.4-0.8C861.4,340,861.4,339,861.4,338z M886.2,297.2
			c-0.4,0-0.7,0.1-1.1,0.1c-3,0-5.9,0-8.9,0c0,0.4,0.2,0.5,0.4,0.7c0.8,0.6,1,1.4,1,2.3c-0.1,3.4,0,6.7,0,10.1
			c0,0.6-0.1,1.1-0.3,1.7c-0.7,1.6-1.4,3.1-2.1,4.8c3.8,0,7.5,0,11.1,0c0.1,0.1,0.1,0.2,0.2,0.2c-3.8,0-7.7,0-11.5,0
			c-0.3,0-0.7,0-1,0c0.5-1.7,1.5-3.2,2.3-4.9c0.3-0.6,0.4-1.2,0.4-1.8c0-3.4-0.1-6.7,0-10.1c0.1-1.4-0.7-2-1.5-2.8
			c-0.2-0.2-0.4-0.3-0.6-0.1c-0.2,0.2,0.1,0.4,0.3,0.5c0.4,0.4,0.8,0.8,0.8,1.5c0,3.8,0,7.5,0,11.3c0,0.4-0.1,0.8-0.3,1.1
			c-1.2,2.2-2.5,4.4-3.7,6.6c-2.9,5.7-5.8,11.3-8.7,17c-0.7,1.4-1.1,2.9-1,4.5c0.1,3,2.4,6.4,6.4,6.4c8.2,0,16.4,0,24.5,0
			c0.7,0,1.3-0.1,2-0.3c3.7-1.1,5.6-5.9,3.9-9.7c-1.8-3.9-3.6-7.8-5.4-11.7c-1.8-3.8-3.7-7.6-5.5-11.4c-0.5-1-1.1-2-1-3.2
			c0.1-3.1,0.1-6.2,0-9.3c0-1.4,0.3-2.5,1.4-3.3c0,0,0-0.1,0-0.2C887.6,297.2,886.9,297.2,886.2,297.2z"/>
		<path fill="#E174BF" d="M874.9,317.2c3.8,0,7.7,0,11.5,0c1.9,4.4,3.9,8.8,5.8,13.3c1.1,2.6,2.4,5,3.3,7.7c0.8,2.3,0.3,4-1.5,5.3
			c-1,0.7-2,1.1-3.2,1.3c-2.2,0.4-4.4,0.6-6.7,0.8c-0.7,0.1-1.3,0.1-2,0.2c-3.9,0-7.8-0.2-11.6-1c-4.4-1-6-3.3-4.4-7.2
			c1.5-3.8,3.3-7.6,4.9-11.3C872.4,323.1,873.7,320.2,874.9,317.2z"/>
		<path fill="#E7FAD5" d="M886.3,317c-3.7,0-7.3,0-11.1,0c0.7-1.7,1.4-3.3,2.1-4.8c0.2-0.5,0.3-1.1,0.3-1.7c0-3.4,0-6.7,0-10.1
			c0-1-0.1-1.8-1-2.3c-0.2-0.1-0.4-0.3-0.4-0.7c3,0,5.9,0,8.9,0c0,0.2-0.1,0.4-0.3,0.6c-0.8,0.6-0.9,1.4-0.9,2.3c0,3.3,0,6.7,0,10
			c0,0.9,0.2,1.7,0.6,2.5C885.1,314.1,885.7,315.5,886.3,317z"/>
		<path fill="#E4F6D2" d="M886.2,297.2c0.7,0,1.3,0,2,0c0,0.1,0,0.2,0,0.2c-1.1,0.8-1.5,1.9-1.4,3.3c0.1,3.1,0.1,6.2,0,9.3
			c0,1.3,0.5,2.2,1,3.2c1.8,3.8,3.7,7.6,5.5,11.4c1.8,3.9,3.7,7.8,5.4,11.7c1.7,3.8-0.2,8.6-3.9,9.7c-0.6,0.2-1.3,0.3-2,0.3
			c-8.2,0-16.4,0-24.5,0c-4,0-6.2-3.4-6.4-6.4c-0.1-1.6,0.3-3.1,1-4.5c2.9-5.7,5.8-11.4,8.7-17c1.2-2.2,2.4-4.4,3.7-6.6
			c0.2-0.3,0.3-0.7,0.3-1.1c0-3.8,0-7.5,0-11.3c0-0.7-0.4-1.1-0.8-1.5c-0.1-0.1-0.4-0.3-0.3-0.5c0.2-0.2,0.4-0.1,0.6,0.1
			c0.8,0.8,1.5,1.5,1.5,2.8c-0.1,3.4-0.1,6.7,0,10.1c0,0.7-0.2,1.2-0.4,1.8c-0.8,1.6-1.8,3.1-2.3,4.9c-0.4,0.3-0.6,0.7-0.8,1.1
			c-1.9,3.6-3.9,7.2-5.8,10.8c-0.7,1.3-1.4,2.7-2.1,4c-0.8,1.4-1.6,2.8-2.1,4.4c-1.1,3.9,1.7,8.5,6.5,8.3c0.3,0.2,0.6,0.1,0.9,0.1
			c7,0,14,0,21,0c0.7,0,1.5-0.1,2.1-0.3c1.5-0.5,2.8-1.2,3.7-2.6c0.8-1.2,1.2-2.5,1.2-3.9c0-2.2-1.2-4-2.1-5.9
			c0-0.3-0.1-0.5-0.3-0.7l0,0c-0.1-0.1-0.1-0.3-0.2-0.4l0,0c0-0.2,0-0.3-0.2-0.4l0,0c0-0.2,0-0.3-0.2-0.4l0,0c0-0.2,0-0.3-0.2-0.4
			l0,0c0-0.2,0-0.3-0.2-0.4l0,0c0-0.2,0-0.3-0.2-0.4l0,0c0-0.2,0-0.3-0.2-0.4l0,0c-0.1-0.1-0.1-0.2-0.2-0.2c0-0.1,0-0.1,0-0.2
			c-1.9-3.9-3.8-7.8-5.7-11.7c-0.3-0.5-0.6-0.7-1.2-0.6c-0.8-1.6-1.6-3.3-2.4-4.9c-0.3-0.5-0.4-1-0.4-1.6c0-3.3,0-6.6,0-10
			c0-1.2,0-2.3,1.2-3.1C886.1,297.6,886.2,297.4,886.2,297.2z"/>
		<path fill="#833870" d="M869.5,345.9c-4.8,0.2-7.5-4.5-6.5-8.3c0.4-1.6,1.3-3,2.1-4.4c0.8-1.3,1.4-2.7,2.1-4
			c1.9-3.6,3.9-7.2,5.8-10.8c0.2-0.4,0.5-0.8,0.8-1.1c0.3,0,0.7,0,1,0c-1.3,3-2.5,5.9-3.8,8.9c-1.6,3.8-3.4,7.5-4.9,11.3
			c-1.5,4,0,6.3,4.4,7.2c3.8,0.8,7.7,1.1,11.6,1c-0.3,0.3-0.7,0.2-1.1,0.2C877.2,345.9,873.3,345.9,869.5,345.9z"/>
		<path fill="#FDFDFD" d="M886.2,297.2c-0.1,0.1-0.1,0.3-0.2,0.4c-1.1,0.8-1.2,1.9-1.2,3.1c0.1,3.3,0,6.6,0,10
			c0,0.6,0.1,1.1,0.4,1.6c0.8,1.6,1.6,3.3,2.4,4.9c2.8,6,5.7,12,8.5,18.1c0.6,1.3,1.4,2.5,1.5,3.9c0.1,2.6-1.5,4.9-4.2,6.2
			c-1.2,0.4-2.5,0.6-3.7,0.5c-1.5-0.1-3-0.1-4.5-0.1c-0.3,0-0.7,0.1-1-0.2c2.2-0.2,4.5-0.4,6.7-0.8c1.1-0.2,2.2-0.7,3.2-1.3
			c1.8-1.2,2.3-2.9,1.5-5.3c-0.9-2.6-2.2-5.1-3.3-7.7c-1.9-4.4-3.9-8.9-5.8-13.3c-0.1-0.1-0.1-0.2-0.2-0.2c-0.6-1.4-1.1-2.8-1.8-4.2
			c-0.4-0.8-0.6-1.6-0.6-2.5c0-3.3,0-6.7,0-10c0-0.9,0.1-1.7,0.9-2.3c0.2-0.1,0.3-0.3,0.3-0.6C885.5,297.3,885.9,297.3,886.2,297.2z
			"/>
		<path fill="#B3C1A7" d="M884.1,345.5c0.3,0.3,0.7,0.2,1,0.2c1.5,0.1,3,0,4.5,0.1c1.2,0.1,2.5-0.1,3.7-0.5c0.1,0.1,0.2,0.2,0.2,0.4
			c-0.7,0.2-1.4,0.3-2.1,0.3c-7,0-14,0-21,0c-0.3,0-0.6,0.1-0.9-0.1c3.9,0,7.7,0,11.6-0.1c0.4,0,0.8,0.1,1.1-0.2
			C882.8,345.6,883.5,345.5,884.1,345.5z"/>
		<path fill="#E174BF" d="M893.6,345.7c-0.1-0.1-0.2-0.2-0.2-0.4c2.7-1.2,4.4-3.6,4.2-6.2c-0.1-1.5-0.9-2.7-1.5-3.9
			c-2.8-6-5.7-12-8.5-18.1c0.5-0.1,0.9,0.1,1.2,0.6c1.9,3.9,3.8,7.8,5.7,11.7c0,0.1,0,0.1,0,0.2c0.1,0.1,0.1,0.2,0.2,0.2l0,0
			c0,0.2,0,0.3,0.2,0.4l0,0c0,0.2,0,0.3,0.2,0.4l0,0c0,0.2,0,0.3,0.2,0.4l0,0c0,0.2,0,0.3,0.2,0.4l0,0c0,0.2,0,0.3,0.2,0.4l0,0
			c0,0.2,0,0.3,0.2,0.4l0,0c0,0.2,0,0.3,0.2,0.4l0,0c0,0.3,0,0.6,0.3,0.7c0.9,1.9,2.1,3.7,2.1,5.9c0,1.4-0.4,2.7-1.2,3.9
			C896.4,344.5,895.1,345.2,893.6,345.7z"/>
		<path fill="#5FBBA1" d="M896.4,333.3c-0.3-0.2-0.4-0.4-0.3-0.7C896.3,332.8,896.4,333,896.4,333.3z"/>
		<path fill="#5FBBA1" d="M894.9,330.3c-0.2-0.1-0.2-0.2-0.2-0.4C894.9,330,894.9,330.1,894.9,330.3z"/>
		<path fill="#5FBBA1" d="M895.1,330.6c-0.2-0.1-0.2-0.2-0.2-0.4C895.1,330.3,895.1,330.5,895.1,330.6z"/>
		<path fill="#5FBBA1" d="M895.3,331c-0.2-0.1-0.2-0.2-0.2-0.4C895.3,330.7,895.3,330.9,895.3,331z"/>
		<path fill="#5FBBA1" d="M895.5,331.4c-0.2-0.1-0.2-0.2-0.2-0.4C895.4,331.1,895.5,331.3,895.5,331.4z"/>
		<path fill="#5FBBA1" d="M895.7,331.8c-0.2-0.1-0.2-0.2-0.2-0.4C895.6,331.5,895.7,331.6,895.7,331.8z"/>
		<path fill="#5FBBA1" d="M895.9,332.2c-0.2-0.1-0.2-0.2-0.2-0.4C895.8,331.9,895.9,332,895.9,332.2z"/>
		<path fill="#5FBBA1" d="M896.1,332.6c-0.2-0.1-0.2-0.2-0.2-0.4C895.9,332.3,896,332.4,896.1,332.6z"/>
		<path fill="#5FBBA1" d="M894.7,329.9c-0.1-0.1-0.1-0.2-0.2-0.2C894.6,329.7,894.7,329.8,894.7,329.9z"/>
	</g>
	<g>
		<path fill="#B3C1A7" d="M900.6,338.7c2.7-6.3,6.1-12.3,9.2-18.4c1-2,2.1-3.9,3.2-5.8c0.2-0.4,0.3-0.8,0.3-1.3c0-3.1,0-6.2,0-9.3
			c0-0.6-0.2-1.1-0.6-1.5c-0.4-0.4-1.1-0.7-1.1-1.5c4.9,0,9.8,0,14.6,0c-0.2,0.7-0.9,1.1-1.3,1.6c-0.3,0.3-0.4,0.6-0.4,1.1
			c0,3.3,0,6.6,0,10c0,1,0.6,1.8,1,2.7c2.4,5.1,4.9,10.1,7.3,15.2c1.1,2.4,2.5,4.7,3.1,7.3c0.7,3.2-1.1,8.2-6.5,8.2
			c-7.3,0-14.5,0-21.8,0c-3.3,0-5.4-1.6-6.5-4.8c-0.1-0.2-0.1-0.5-0.3-0.7C900.6,340.6,900.6,339.7,900.6,338.7z M923.3,301.4
			c-0.3,0-0.7,0.1-1,0.1c-2.7,0-5.4,0-8.2,0c0,0.3,0.2,0.5,0.4,0.6c0.7,0.5,0.9,1.3,0.9,2.2c0,3.1,0,6.2,0,9.2c0,0.5-0.1,1-0.3,1.5
			c-0.7,1.4-1.3,2.9-1.9,4.4c3.5,0,6.8,0,10.2,0c0.1,0.1,0.1,0.1,0.2,0.2c-3.5,0-7,0-10.6,0c-0.3,0-0.6,0-0.9,0
			c0.5-1.6,1.4-3,2.1-4.4c0.3-0.5,0.4-1.1,0.4-1.7c0-3.1-0.1-6.2,0-9.3c0-1.2-0.6-1.9-1.3-2.6c-0.2-0.1-0.4-0.3-0.5-0.1
			c-0.2,0.2,0.1,0.4,0.2,0.5c0.4,0.4,0.8,0.7,0.8,1.4c0,3.4,0,6.9,0,10.3c0,0.4-0.1,0.7-0.2,1c-1.1,2-2.3,4-3.4,6.1
			c-2.7,5.2-5.3,10.4-8,15.6c-0.7,1.3-1,2.7-0.9,4.1c0.1,2.7,2.2,5.9,5.9,5.8c7.5,0,15,0,22.5,0c0.6,0,1.2-0.1,1.8-0.3
			c3.4-1,5.1-5.4,3.6-8.9c-1.6-3.6-3.3-7.1-5-10.7c-1.7-3.5-3.4-7-5-10.5c-0.4-0.9-1-1.8-0.9-3c0.1-2.8,0.1-5.7,0-8.6
			c0-1.3,0.2-2.3,1.3-3.1c0,0,0-0.1,0-0.2C924.6,301.4,924,301.4,923.3,301.4z"/>
		<path fill="#9D75DF" d="M913,319.7c3.5,0,7,0,10.6,0c1.8,4.1,3.6,8.1,5.3,12.2c1,2.3,2.2,4.6,3,7c0.7,2.2,0.2,3.7-1.4,4.8
			c-0.9,0.6-1.9,1-2.9,1.2c-2,0.4-4.1,0.5-6.1,0.7c-0.6,0.1-1.2,0.1-1.8,0.2c-3.6,0-7.2-0.2-10.6-0.9c-4-0.9-5.5-3-4-6.6
			c1.4-3.5,3-6.9,4.5-10.4C910.7,325.1,911.8,322.4,913,319.7z"/>
		<path fill="#E7FAD5" d="M923.4,319.5c-3.4,0-6.7,0-10.2,0c0.7-1.5,1.3-3,1.9-4.4c0.2-0.5,0.3-1,0.3-1.5c0-3.1,0-6.2,0-9.2
			c0-0.9-0.1-1.6-0.9-2.2c-0.2-0.1-0.4-0.3-0.4-0.6c2.7,0,5.4,0,8.2,0c0,0.2-0.1,0.4-0.3,0.5c-0.8,0.5-0.8,1.3-0.8,2.1
			c0,3.1,0,6.1,0,9.2c0,0.8,0.2,1.5,0.5,2.3C922.3,316.8,922.8,318.2,923.4,319.5z"/>
		<path fill="#E4F6D2" d="M923.3,301.4c0.6,0,1.2,0,1.8,0c0,0.1,0,0.2,0,0.2c-1.1,0.8-1.3,1.8-1.3,3.1c0.1,2.8,0.1,5.7,0,8.6
			c0,1.1,0.5,2,0.9,3c1.6,3.5,3.4,7,5,10.5c1.7,3.6,3.4,7.1,5,10.7c1.6,3.5-0.2,7.9-3.6,8.9c-0.6,0.2-1.2,0.3-1.8,0.3
			c-7.5,0-15,0-22.5,0c-3.7,0-5.7-3.1-5.9-5.8c-0.1-1.5,0.2-2.8,0.9-4.1c2.7-5.2,5.3-10.4,8-15.6c1.1-2.1,2.2-4.1,3.4-6.1
			c0.2-0.3,0.2-0.6,0.2-1c0-3.4,0-6.9,0-10.3c0-0.7-0.4-1-0.8-1.4c-0.1-0.1-0.4-0.3-0.2-0.5c0.2-0.2,0.4-0.1,0.5,0.1
			c0.7,0.7,1.4,1.3,1.3,2.6c-0.1,3.1-0.1,6.2,0,9.3c0,0.6-0.1,1.1-0.4,1.7c-0.7,1.5-1.6,2.9-2.1,4.4c-0.3,0.3-0.6,0.7-0.8,1
			c-1.7,3.3-3.6,6.6-5.3,9.9c-0.6,1.2-1.3,2.5-2,3.7c-0.7,1.3-1.5,2.6-1.9,4c-1,3.5,1.6,7.8,5.9,7.6c0.3,0.2,0.6,0.1,0.9,0.1
			c6.4,0,12.8,0,19.3,0c0.7,0,1.3-0.1,2-0.3c1.4-0.5,2.6-1.1,3.4-2.4c0.7-1.1,1.1-2.3,1.1-3.6c0-2-1.1-3.6-1.9-5.4
			c0-0.3-0.1-0.5-0.3-0.7l0,0c-0.1-0.1-0.1-0.2-0.2-0.4l0,0c0-0.1,0-0.3-0.2-0.4l0,0c0-0.1,0-0.3-0.2-0.4l0,0c0-0.1,0-0.3-0.2-0.4
			l0,0c0-0.1,0-0.3-0.2-0.4l0,0c0-0.1,0-0.3-0.2-0.4l0,0c0-0.1,0-0.3-0.2-0.4l0,0c-0.1-0.1-0.1-0.1-0.2-0.2c0-0.1,0-0.1,0-0.2
			c-1.8-3.6-3.5-7.1-5.3-10.7c-0.2-0.5-0.6-0.6-1.1-0.6c-0.7-1.5-1.4-3-2.2-4.5c-0.2-0.5-0.3-0.9-0.3-1.4c0-3,0-6.1,0-9.1
			c0-1.1,0-2.2,1.1-2.9C923.3,301.7,923.3,301.5,923.3,301.4z"/>
		<path fill="#783C8D" d="M908,346c-4.4,0.2-6.9-4.1-5.9-7.6c0.4-1.4,1.2-2.8,1.9-4c0.7-1.2,1.3-2.5,2-3.7c1.7-3.3,3.6-6.6,5.3-9.9
			c0.2-0.4,0.4-0.8,0.8-1c0.3,0,0.6,0,0.9,0c-1.2,2.7-2.3,5.4-3.5,8.2c-1.5,3.5-3.2,6.9-4.5,10.4c-1.4,3.6,0,5.7,4,6.6
			c3.5,0.8,7.1,1,10.6,0.9c-0.3,0.3-0.7,0.1-1,0.1C915.1,346,911.5,346,908,346z"/>
		<path fill="#FDFDFD" d="M923.3,301.4c-0.1,0.1-0.1,0.3-0.2,0.4c-1,0.7-1.1,1.7-1.1,2.9c0.1,3,0,6.1,0,9.1c0,0.5,0.1,1,0.3,1.4
			c0.7,1.5,1.4,3,2.2,4.5c2.6,5.5,5.2,11,7.8,16.5c0.5,1.2,1.3,2.3,1.3,3.6c0.1,2.4-1.4,4.5-3.9,5.6c-1.1,0.4-2.3,0.5-3.4,0.4
			c-1.4-0.1-2.7-0.1-4.1-0.1c-0.3,0-0.6,0.1-0.9-0.2c2-0.2,4.1-0.3,6.1-0.7c1.1-0.2,2-0.6,2.9-1.2c1.6-1.1,2.1-2.7,1.4-4.8
			c-0.8-2.4-2-4.7-3-7c-1.7-4.1-3.5-8.1-5.3-12.2c-0.1-0.1-0.1-0.1-0.2-0.2c-0.5-1.3-1-2.6-1.6-3.9c-0.3-0.7-0.5-1.5-0.5-2.3
			c0-3.1,0-6.1,0-9.2c0-0.8,0.1-1.6,0.8-2.1c0.2-0.1,0.3-0.3,0.3-0.5C922.7,301.5,923,301.4,923.3,301.4z"/>
		<path fill="#B3C1A7" d="M921.4,345.6c0.3,0.3,0.6,0.1,0.9,0.2c1.4,0.1,2.7,0,4.1,0.1c1.1,0.1,2.3-0.1,3.4-0.4
			c0.1,0.1,0.1,0.2,0.2,0.3c-0.6,0.2-1.3,0.3-2,0.3c-6.4,0-12.8,0-19.3,0c-0.3,0-0.6,0.1-0.9-0.1c3.5,0,7.1,0,10.6-0.1
			c0.3,0,0.7,0.1,1-0.1C920.2,345.7,920.8,345.7,921.4,345.6z"/>
		<path fill="#9D75DF" d="M930.1,345.8c-0.1-0.1-0.1-0.2-0.2-0.3c2.5-1.1,4-3.3,3.9-5.6c-0.1-1.3-0.8-2.4-1.3-3.6
			c-2.6-5.5-5.2-11-7.8-16.5c0.5-0.1,0.8,0.1,1.1,0.6c1.7,3.6,3.5,7.1,5.3,10.7c0,0,0,0.1,0,0.2c0.1,0.1,0.1,0.1,0.2,0.2l0,0
			c0,0.1,0,0.3,0.2,0.4l0,0c0,0.1,0,0.3,0.2,0.4l0,0c0,0.1,0,0.3,0.2,0.4l0,0c0,0.1,0,0.3,0.2,0.4l0,0c0,0.1,0,0.3,0.2,0.4l0,0
			c0,0.1,0,0.3,0.2,0.4l0,0c0,0.1,0,0.3,0.2,0.4l0,0c0,0.3,0,0.5,0.3,0.7c0.8,1.7,1.9,3.4,1.9,5.4c0,1.3-0.4,2.5-1.1,3.6
			C932.6,344.7,931.4,345.3,930.1,345.8z"/>
		<path fill="#5FBBA1" d="M932.7,334.5c-0.3-0.2-0.3-0.4-0.3-0.7C932.6,334,932.7,334.2,932.7,334.5z"/>
		<path fill="#5FBBA1" d="M931.3,331.7c-0.2-0.1-0.2-0.2-0.2-0.4C931.3,331.4,931.3,331.5,931.3,331.7z"/>
		<path fill="#5FBBA1" d="M931.5,332c-0.2-0.1-0.2-0.2-0.2-0.4C931.4,331.7,931.5,331.9,931.5,332z"/>
		<path fill="#5FBBA1" d="M931.7,332.4c-0.2-0.1-0.2-0.2-0.2-0.4C931.6,332.1,931.7,332.2,931.7,332.4z"/>
		<path fill="#5FBBA1" d="M931.8,332.7c-0.2-0.1-0.2-0.2-0.2-0.4C931.8,332.4,931.8,332.6,931.8,332.7z"/>
		<path fill="#5FBBA1" d="M932,333.1c-0.2-0.1-0.2-0.2-0.2-0.4C932,332.8,932,332.9,932,333.1z"/>
		<path fill="#5FBBA1" d="M932.2,333.4c-0.2-0.1-0.2-0.2-0.2-0.4C932.1,333.2,932.2,333.3,932.2,333.4z"/>
		<path fill="#5FBBA1" d="M932.4,333.8c-0.2-0.1-0.2-0.2-0.2-0.4C932.2,333.5,932.3,333.7,932.4,333.8z"/>
		<path fill="#5FBBA1" d="M931.1,331.3c-0.1-0.1-0.1-0.1-0.2-0.2C931,331.2,931.1,331.2,931.1,331.3z"/>
	</g>
	<g>
		<path fill="#B3C1A7" d="M938.6,340c2.3-5.3,5.1-10.3,7.8-15.4c0.8-1.6,1.8-3.2,2.7-4.9c0.2-0.3,0.2-0.7,0.2-1.1c0-2.6,0-5.2,0-7.8
			c0-0.5-0.2-0.9-0.5-1.3c-0.4-0.4-0.9-0.6-0.9-1.3c4.1,0,8.2,0,12.3,0c-0.2,0.6-0.7,0.9-1.1,1.3c-0.3,0.3-0.4,0.5-0.4,0.9
			c0,2.8,0,5.6,0,8.4c0,0.9,0.5,1.5,0.8,2.3c2,4.3,4.1,8.5,6.1,12.8c0.9,2,2.1,3.9,2.6,6.1c0.6,2.7-1,6.9-5.5,6.9
			c-6.1,0-12.2,0-18.3,0c-2.8,0-4.6-1.3-5.5-4c-0.1-0.2-0.1-0.5-0.3-0.6C938.6,341.6,938.6,340.8,938.6,340z M957.7,308.6
			c-0.3,0-0.6,0.1-0.9,0.1c-2.3,0-4.6,0-6.9,0c0,0.3,0.2,0.4,0.3,0.5c0.6,0.5,0.7,1.1,0.7,1.8c0,2.6,0,5.2,0,7.8
			c0,0.5-0.1,0.9-0.3,1.3c-0.6,1.2-1.1,2.4-1.6,3.7c2.9,0,5.7,0,8.6,0c0,0.1,0.1,0.1,0.1,0.2c-3,0-5.9,0-8.9,0c-0.3,0-0.5,0-0.8,0
			c0.4-1.3,1.2-2.5,1.8-3.7c0.2-0.5,0.3-0.9,0.3-1.4c0-2.6-0.1-5.2,0-7.8c0-1-0.5-1.6-1.1-2.2c-0.1-0.1-0.3-0.3-0.4-0.1
			c-0.1,0.2,0.1,0.3,0.2,0.4c0.3,0.3,0.6,0.6,0.6,1.2c0,2.9,0,5.8,0,8.7c0,0.3-0.1,0.6-0.2,0.8c-1,1.7-1.9,3.4-2.8,5.1
			c-2.3,4.4-4.5,8.7-6.7,13.1c-0.6,1.1-0.8,2.2-0.8,3.5c0.1,2.3,1.8,4.9,4.9,4.9c6.3,0,12.6,0,18.9,0c0.5,0,1-0.1,1.5-0.2
			c2.8-0.8,4.3-4.5,3-7.5c-1.4-3-2.8-6-4.2-9c-1.4-2.9-2.9-5.9-4.2-8.8c-0.4-0.8-0.8-1.5-0.8-2.5c0.1-2.4,0.1-4.8,0-7.2
			c0-1.1,0.2-1.9,1.1-2.6c0,0,0-0.1,0-0.2C958.7,308.6,958.2,308.6,957.7,308.6z"/>
		<path fill="#4343B4" d="M949,324c3,0,5.9,0,8.9,0c1.5,3.4,3,6.8,4.5,10.2c0.8,2,1.9,3.9,2.5,5.9c0.6,1.8,0.2,3.1-1.2,4
			c-0.7,0.5-1.6,0.8-2.4,1c-1.7,0.3-3.4,0.4-5.1,0.6c-0.5,0-1,0.1-1.5,0.1c-3,0-6-0.1-9-0.8c-3.4-0.7-4.6-2.5-3.4-5.6
			c1.2-3,2.5-5.8,3.8-8.7C947.1,328.6,948,326.3,949,324z"/>
		<path fill="#E7FAD5" d="M957.8,323.8c-2.8,0-5.7,0-8.6,0c0.6-1.3,1.1-2.5,1.6-3.7c0.2-0.4,0.3-0.8,0.3-1.3c0-2.6,0-5.2,0-7.8
			c0-0.7-0.1-1.3-0.7-1.8c-0.1-0.1-0.3-0.2-0.3-0.5c2.3,0,4.6,0,6.9,0c0,0.2-0.1,0.3-0.2,0.4c-0.6,0.4-0.7,1.1-0.7,1.8
			c0,2.6,0,5.1,0,7.7c0,0.7,0.1,1.3,0.4,1.9C956.9,321.6,957.3,322.7,957.8,323.8z"/>
		<path fill="#E4F6D2" d="M957.7,308.6c0.5,0,1,0,1.5,0c0,0.1,0,0.2,0,0.2c-0.9,0.6-1.1,1.5-1.1,2.6c0.1,2.4,0.1,4.8,0,7.2
			c0,1,0.4,1.7,0.8,2.5c1.4,3,2.8,5.9,4.2,8.8c1.4,3,2.8,6,4.2,9c1.3,2.9-0.2,6.6-3,7.5c-0.5,0.1-1,0.2-1.5,0.2
			c-6.3,0-12.6,0-18.9,0c-3.1,0-4.8-2.6-4.9-4.9c-0.1-1.2,0.2-2.4,0.8-3.5c2.3-4.4,4.5-8.8,6.7-13.1c0.9-1.7,1.9-3.4,2.8-5.1
			c0.2-0.3,0.2-0.5,0.2-0.8c0-2.9,0-5.8,0-8.7c0-0.6-0.3-0.8-0.6-1.2c-0.1-0.1-0.3-0.2-0.2-0.4c0.1-0.2,0.3,0,0.4,0.1
			c0.6,0.6,1.2,1.1,1.1,2.2c-0.1,2.6,0,5.2,0,7.8c0,0.5-0.1,1-0.3,1.4c-0.6,1.2-1.4,2.4-1.8,3.7c-0.3,0.2-0.5,0.6-0.7,0.9
			c-1.5,2.8-3,5.6-4.5,8.4c-0.5,1-1.1,2.1-1.7,3.1c-0.6,1.1-1.3,2.2-1.6,3.4c-0.8,3,1.3,6.6,5,6.4c0.2,0.2,0.5,0.1,0.7,0.1
			c5.4,0,10.8,0,16.2,0c0.6,0,1.1-0.1,1.7-0.3c1.1-0.4,2.2-0.9,2.9-2c0.6-1,0.9-2,0.9-3c0-1.7-0.9-3.1-1.6-4.5
			c0-0.2-0.1-0.4-0.2-0.6l0,0c0-0.1-0.1-0.2-0.1-0.3l0,0c0-0.1,0-0.2-0.1-0.3l0,0c0-0.1,0-0.2-0.1-0.3l0,0c0-0.1,0-0.2-0.1-0.3l0,0
			c0-0.1,0-0.2-0.1-0.3l0,0c0-0.1,0-0.2-0.1-0.3l0,0c0-0.1,0-0.2-0.1-0.3l0,0c-0.1-0.1-0.1-0.1-0.2-0.2c0,0,0-0.1,0-0.1
			c-1.5-3-3-6-4.4-9c-0.2-0.4-0.5-0.5-0.9-0.5c-0.6-1.3-1.2-2.5-1.8-3.8c-0.2-0.4-0.3-0.8-0.3-1.2c0-2.6,0-5.1,0-7.7
			c0-0.9,0-1.8,0.9-2.4C957.7,308.9,957.7,308.8,957.7,308.6z"/>
		<path fill="#25258D" d="M944.8,346.1c-3.7,0.2-5.8-3.4-5-6.4c0.3-1.2,1-2.3,1.6-3.4c0.6-1,1.1-2.1,1.7-3.1c1.5-2.8,3-5.6,4.5-8.4
			c0.2-0.3,0.4-0.6,0.7-0.9c0.3,0,0.5,0,0.8,0c-1,2.3-1.9,4.6-2.9,6.9c-1.3,2.9-2.7,5.8-3.8,8.7c-1.2,3,0,4.8,3.4,5.6
			c2.9,0.6,5.9,0.8,9,0.8c-0.3,0.2-0.6,0.1-0.9,0.1C950.8,346.1,947.8,346.1,944.8,346.1z"/>
		<path fill="#FDFDFD" d="M957.7,308.6c0,0.1-0.1,0.3-0.1,0.3c-0.9,0.6-0.9,1.5-0.9,2.4c0,2.6,0,5.1,0,7.7c0,0.4,0.1,0.8,0.3,1.2
			c0.6,1.2,1.2,2.5,1.8,3.8c2.2,4.6,4.4,9.3,6.6,13.9c0.5,1,1.1,1.9,1.1,3c0.1,2-1.1,3.8-3.3,4.7c-0.9,0.3-1.9,0.4-2.9,0.4
			c-1.2-0.1-2.3,0-3.4-0.1c-0.3,0-0.5,0.1-0.8-0.1c1.7-0.1,3.4-0.3,5.1-0.6c0.9-0.2,1.7-0.5,2.4-1c1.4-1,1.8-2.2,1.2-4
			c-0.7-2-1.7-3.9-2.5-5.9c-1.5-3.4-3-6.8-4.5-10.2c0-0.1-0.1-0.1-0.1-0.2c-0.5-1.1-0.9-2.2-1.4-3.3c-0.3-0.6-0.4-1.2-0.4-1.9
			c0-2.6,0-5.1,0-7.7c0-0.7,0-1.3,0.7-1.8c0.1-0.1,0.2-0.3,0.2-0.4C957.1,308.7,957.4,308.7,957.7,308.6z"/>
		<path fill="#B3C1A7" d="M956.1,345.8c0.2,0.2,0.5,0.1,0.8,0.1c1.1,0.1,2.3,0,3.4,0.1c0.9,0.1,1.9-0.1,2.9-0.4
			c0.1,0.1,0.1,0.2,0.2,0.3c-0.5,0.2-1.1,0.3-1.7,0.3c-5.4,0-10.8,0-16.2,0c-0.2,0-0.5,0.1-0.7-0.1c3,0,6,0,8.9,0
			c0.3,0,0.6,0.1,0.9-0.1C955.1,345.9,955.6,345.9,956.1,345.8z"/>
		<path fill="#4343B4" d="M963.4,346c-0.1-0.1-0.1-0.2-0.2-0.3c2.1-0.9,3.4-2.8,3.3-4.7c-0.1-1.1-0.7-2.1-1.1-3
			c-2.2-4.6-4.4-9.3-6.6-13.9c0.4-0.1,0.7,0.1,0.9,0.5c1.5,3,2.9,6,4.4,9c0,0,0,0.1,0,0.1c0.1,0.1,0.1,0.1,0.2,0.2l0,0
			c0,0.1,0,0.2,0.1,0.3l0,0c0,0.1,0,0.2,0.1,0.3l0,0c0,0.1,0,0.2,0.1,0.3l0,0c0,0.1,0,0.2,0.1,0.3l0,0c0,0.1,0,0.2,0.1,0.3l0,0
			c0,0.1,0,0.2,0.1,0.3l0,0c0,0.1,0,0.2,0.1,0.3l0,0c0,0.2,0,0.4,0.2,0.6c0.7,1.4,1.6,2.8,1.6,4.5c0,1.1-0.3,2.1-0.9,3
			C965.5,345.1,964.5,345.6,963.4,346z"/>
		<path fill="#5FBBA1" d="M965.6,336.5c-0.2-0.1-0.3-0.3-0.2-0.6C965.5,336,965.6,336.2,965.6,336.5z"/>
		<path fill="#5FBBA1" d="M964.4,334.1c-0.1-0.1-0.1-0.2-0.1-0.3C964.4,333.9,964.4,334,964.4,334.1z"/>
		<path fill="#5FBBA1" d="M964.6,334.4c-0.1-0.1-0.1-0.2-0.1-0.3C964.5,334.2,964.6,334.3,964.6,334.4z"/>
		<path fill="#5FBBA1" d="M964.7,334.7c-0.1-0.1-0.1-0.2-0.1-0.3C964.7,334.5,964.7,334.6,964.7,334.7z"/>
		<path fill="#5FBBA1" d="M964.9,335c-0.1-0.1-0.1-0.2-0.1-0.3C964.8,334.8,964.9,334.9,964.9,335z"/>
		<path fill="#5FBBA1" d="M965,335.3c-0.1-0.1-0.1-0.2-0.1-0.3C965,335.1,965,335.2,965,335.3z"/>
		<path fill="#5FBBA1" d="M965.2,335.6c-0.1-0.1-0.1-0.2-0.1-0.3C965.1,335.4,965.2,335.5,965.2,335.6z"/>
		<path fill="#5FBBA1" d="M965.3,335.9c-0.1-0.1-0.1-0.2-0.1-0.3C965.2,335.7,965.3,335.8,965.3,335.9z"/>
		<path fill="#5FBBA1" d="M964.3,333.8c-0.1-0.1-0.1-0.1-0.2-0.2C964.2,333.7,964.2,333.7,964.3,333.8z"/>
	</g>
</g>
<linearGradient id="SVGID_10_" gradientUnits="userSpaceOnUse" x1="339.0631" y1="185.9542" x2="434.1071" y2="185.9542">
	<stop  offset="0" style="stop-color:#00BAC3"/>
	<stop  offset="0.4888" style="stop-color:#9CD6D3"/>
	<stop  offset="1" style="stop-color:#00617C"/>
</linearGradient>
<path fill="url(#SVGID_10_)" d="M382.4,149.3c-20.5,1.2-50,12.2-42,70.8c0,0,61.7,7.6,93.1-3.4C433.5,216.7,443.6,145.8,382.4,149.3
	z"/>
<linearGradient id="SVGID_11_" gradientUnits="userSpaceOnUse" x1="627.0237" y1="92.2518" x2="638.0237" y2="92.2518">
	<stop  offset="0" style="stop-color:#282880"/>
	<stop  offset="9.705802e-002" style="stop-color:#2A2C83"/>
	<stop  offset="0.1988" style="stop-color:#2F398B"/>
	<stop  offset="0.3026" style="stop-color:#384E98"/>
	<stop  offset="0.4073" style="stop-color:#456BAB"/>
	<stop  offset="0.4888" style="stop-color:#5187BD"/>
	<stop  offset="0.601" style="stop-color:#3B5C99"/>
	<stop  offset="0.722" style="stop-color:#273478"/>
	<stop  offset="0.8329" style="stop-color:#191860"/>
	<stop  offset="0.9292" style="stop-color:#100651"/>
	<stop  offset="1" style="stop-color:#0D004C"/>
</linearGradient>
<path fill="url(#SVGID_11_)" d="M627,42.1v103.1c0,0,4,11.3,11,0V42.1C638,42.1,633,24.6,627,42.1z"/>
<linearGradient id="SVGID_12_" gradientUnits="userSpaceOnUse" x1="586.0631" y1="185.9542" x2="681.1072" y2="185.9542">
	<stop  offset="0" style="stop-color:#00BAC3"/>
	<stop  offset="0.4888" style="stop-color:#9CD6D3"/>
	<stop  offset="1" style="stop-color:#00617C"/>
</linearGradient>
<path fill="url(#SVGID_12_)" d="M629.4,149.3c-20.5,1.2-50,12.2-42,70.8c0,0,61.7,7.6,93.1-3.4C680.5,216.7,690.6,145.8,629.4,149.3
	z"/>
<g>
	
		<image overflow="visible" opacity="0.75" width="396" height="236" xlink:href="EC246D2C.png"  transform="matrix(1 0 0 1 233.0237 185)">
	</image>
	<g>
		<g>
			<path fill="#2EE8DA" d="M499.5,343.5c2.6-1.5,5.1-3,7.7-4.5c2.6-1.5,5.2-3,7.6-4.4c-0.7-1.1-1.3-2.1-2-3.3
				c-4.9,2.8-10.1,5.8-15.3,8.8c-0.2-0.2-0.3-0.4-0.5-0.6c0.5-0.4,0.9-0.9,1.4-1.2c4.4-2.5,8.7-5.1,13.1-7.5
				c1.3-0.7,1.9-1.6,1.8-3.1c-0.1-6.9-0.1-13.8,0-20.7c0-1.2-0.4-1.8-1.5-2.2c-7.5-2.7-15-5.5-22.4-8.4c-1.3-0.5-2.1-0.2-3.1,0.5
				c-3.4,2.6-6.9,5.1-10.4,7.5c-0.4,0.3-0.9,0.4-1.4,0.6c-0.1-0.2-0.2-0.4-0.3-0.6c0.7-0.5,1.3-1.1,2-1.6c3.2-2.3,6.4-4.7,9.6-6.9
				c1-0.7,1.2-1.3,0.8-2.5c-2.5-7.5-5-15-7.4-22.6c-0.4-1.3-1.1-1.7-2.4-1.7c-7.8,0.1-15.6,0.1-23.4,0c-1.4,0-2,0.4-2.4,1.7
				c-2.4,7.6-4.9,15.2-7.4,22.7c-0.4,1.2,0,1.7,0.9,2.3c3.5,2.5,6.9,5,10.4,7.5c0.4,0.3,0.7,0.8,1,1.3c-0.2,0.2-0.3,0.3-0.5,0.5
				c-2.1-1.5-4.2-3-6.3-4.5c-0.5-0.4-1.1-0.7-1.5-1.1c-3.4-3.7-7.3-3.6-11.8-2.4c-6.4,1.7-12.9,2.9-19.4,4.2
				c-0.7,0.1-1.7-0.2-2.2-0.7c-5.4-5.9-10.8-11.9-16.2-17.9c-1.1-1.3-2.1-1.8-3.9-1.4c-6.9,1.5-13.9,2.9-20.8,4.3
				c-0.5,0.1-0.9,0.3-1.8,0.6c4.7,1.9,9.1,3.7,13.7,5.6c-1,1.7-1.9,3.2-2.9,5c-4.2-3.3-8.3-6.4-12.7-9.8c-0.5,2.9-1,5.6-1.6,8.3
				c-1,5.2-1.9,10.4-3,15.6c-0.3,1.7,0,2.8,1.5,3.8c3.3,2.3,6.4,4.9,9.6,7.3c0.4,0.3,0.7,0.7,1.1,1c-0.1,0.2-0.2,0.3-0.3,0.5
				c-0.5-0.2-1.1-0.3-1.5-0.6c-3.4-2.5-6.7-5.1-10-7.7c-1-0.8-1.7-0.8-2.8,0c-6.4,4.5-12.9,9-19.4,13.3c-1.1,0.8-1.4,1.5-1,2.8
				c2.3,7.4,4.5,14.9,6.6,22.4c0.4,1.4,1,1.9,2.5,1.9c7.9,0.1,15.8,0.3,23.7,0.6c1.2,0,1.6-0.3,2-1.4c1.3-3.9,2.7-7.7,4.1-11.5
				c0.2-0.6,0.5-1.2,0.8-1.8c0.2,0,0.4,0.1,0.7,0.1c-0.1,0.6-0.1,1.3-0.3,1.9c-1.4,4-2.9,7.9-4.2,11.9c-0.3,0.8-0.2,2,0.2,2.8
				c3.9,7.3,7.8,14.6,11.8,21.9c0.6,1,0.6,1.8,0,2.8c-4.5,7.3-8.9,14.6-13.5,21.8c-0.4,0.6-1.4,1.2-2.1,1.2
				c-5.3-0.1-10.7-0.3-16-0.5c-3.3-0.1-6.5-0.1-9.8-0.2c-0.7,0-1.6-0.6-2-1.3c-4.2-7.5-8.2-15.1-12.4-22.7c-0.7-1.2-0.2-2,0.4-2.9
				c4.3-7,8.6-13.9,12.8-20.9c0.4-0.7,0.6-1.9,0.4-2.8c-2.1-7.6-4.4-15.2-6.6-22.8c-0.4-1.5-1.2-2-2.6-2.3
				c-7.9-1.4-15.8-2.8-23.7-4.3c-0.9-0.2-2-0.8-2.5-1.6c-4.9-6.9-9.7-14-14.5-20.9c-0.4-0.6-1-1.1-1.7-1.5
				c-3.7-2.4-7.4-4.8-11.1-7.2c-0.4-0.3-0.8-0.6-1.2-0.9c0.1-0.2,0.1-0.4,0.2-0.6c0.5,0.1,1.1,0.2,1.5,0.5c3.2,2.1,6.4,4.2,9.6,6.3
				c0.6,0.4,1.2,0.7,2,1.2c0.6-6.3,1.3-12.3,1.9-18.3c0.3-2.8,0.4-5.6,0.9-8.4c0.1-0.9,0.9-1.9,1.7-2.4c7.1-4.2,14.3-8.2,21.4-12.3
				c0.4-0.3,0.9-0.5,1.5-1c-1-0.7-1.9-1.3-2.7-1.8c-6-3.9-12-7.8-17.9-11.8c-1.2-0.8-2-0.7-3,0.1c-6.4,4.5-12.9,9-19.3,13.4
				c-1.2,0.8-1.8,1.8-2,3.2c-0.7,4.3-1.5,8.5-2.3,12.8c-0.1,0.5-0.3,1-0.5,1.6c-0.2,0-0.3,0-0.5,0c-0.1-0.4-0.3-0.8-0.2-1.1
				c0.9-5.1,1.8-10.2,2.8-15.2c0.1-0.6,0.7-1.2,1.3-1.5c6.8-4.8,13.6-9.5,20.4-14.2c1-0.7,1.3-1.3,1.3-2.5
				c-0.2-8.2-0.3-16.3-0.4-24.5c0-1.3,0.4-2.1,1.5-2.7c7-4.1,14-8.3,21.1-12.5c0.5-0.3,1.1-0.6,1.6-0.9c0.2,0.2,0.3,0.4,0.5,0.5
				c-0.4,0.4-0.8,0.9-1.3,1.2c-6,3.6-11.9,7.4-18.1,10.7c-3.2,1.7-4.3,3.7-4.1,7.3c0.4,7.1,0.3,14.1,0.5,21.2c0,0.6,0.5,1.5,1,1.8
				c7.1,4.7,14.1,9.4,21.4,13.9c1.8,1.1,4.2,1.2,6.4,1.6c4.8,0.9,9.5,1.8,14.3,2.7c0.5,0.1,1,0.4,1.6,0.6c0,0.2-0.1,0.4-0.1,0.6
				c-0.7-0.1-1.4-0.1-2.1-0.2c-6.1-1.1-12.2-2.2-18.2-3.3c-0.6-0.1-1.4-0.1-1.8,0.2c-6.5,5.2-12.9,10.5-19.6,16
				c3.7,2.4,7.2,4.7,10.7,6.9c2.8,1.8,5.6,3.7,8.5,5.5c0.6,0.4,1.7,0.5,2.3,0.2c4.2-2.1,8.4-4.3,12.6-6.4c0.5-0.3,1.1-0.3,1.7-0.5
				c0.1,0.2,0.2,0.4,0.2,0.6c-0.8,0.5-1.6,1-2.4,1.4c-2.9,1.5-5.8,3-8.7,4.4c-1,0.5-1.5,1-1.6,2.3c-0.3,5.4-0.8,10.8-1.3,16.2
				c0,0.4-0.2,0.8-0.6,1.1c-0.4-6,0.6-11.9,0.8-17.7c-1.2,0-2.4,0-3.8,0c-0.5,5.5-0.9,11.4-1.4,17.3c-0.2,0-0.4,0.1-0.6,0.1
				c-0.2-0.3-0.5-0.7-0.5-1c0.4-5.2,0.8-10.4,1.3-15.6c0.1-1.5-0.2-2.5-1.6-3.4c-5.4-3.4-10.7-6.9-16.3-10.5c-1,3.6-2,7.1-2.9,10.6
				c-1.2,4.4-2.4,8.9-3.5,13.3c-0.2,0.7,0,1.8,0.4,2.4c4.6,6.8,9.2,13.5,13.9,20.2c0.5,0.7,1.5,1.3,2.4,1.5c7.9,1.5,15.8,3,23.7,4.4
				c1,0.2,2.3-0.1,3.2-0.7c6.6-4.4,13.2-8.9,19.7-13.5c0.9-0.6,1.6-1.8,1.8-2.9c1.6-7.9,3.1-15.8,4.4-23.7c0.2-1-0.4-2.3-1-3.3
				c-3.9-5.8-7.9-11.5-11.8-17.2c-0.4-0.6-0.6-1.4-0.9-2.1c0.2-0.1,0.4-0.2,0.6-0.3c1.7,2.5,3.4,4.9,5.1,7.4c2.8,4,5.5,8,8.2,12
				c0.6,0.9,1.2,1.2,2.3,1c7.9-1.7,15.9-3.3,23.8-5c0.7-0.1,1.5-0.9,1.7-1.6c2.6-7.7,5-15.4,7.5-23.1c0.4-1.2,0.1-1.9-0.6-2.7
				c-3.2-3.5-6.4-7-9.5-10.5c-0.3-0.3-0.4-0.9-0.6-1.3c0.2-0.1,0.4-0.2,0.6-0.3c3.2,3.5,6.5,7,9.5,10.6c1.3,1.5,2.4,2,4.4,1.5
				c7.7-1.8,15.5-3.3,23.2-5c1.3-0.3,2,0.1,2.8,0.9c5.5,6.1,11,12.3,16.5,18.3c0.6,0.6,1.6,1.1,2.4,1.1c8.2,0.1,16.3,0,24.5,0.1
				c1.2,0,1.8-0.4,2.5-1.4c4.4-6.9,8.9-13.7,13.5-20.5c0.5-0.8,1.6-1.5,2.5-1.5c8.4-0.9,16.7-1.6,25.1-2.3c0.9-0.1,2.1,0.4,2.8,1
				c3.1,3.1,6.1,6.3,9.2,9.5c0.3,0.3,0.5,0.7,0.8,1c-0.1,0.2-0.2,0.4-0.3,0.5c-0.5-0.3-1.1-0.5-1.5-0.9c-3-3.1-6-6.3-9-9.4
				c-0.5-0.5-1.3-0.8-1.9-0.8c-8.4,0.7-16.7,1.5-25.1,2.3c-0.6,0.1-1.3,0.6-1.6,1.1c-4.6,6.9-9.2,13.8-13.7,20.8
				c-0.4,0.6-0.5,1.6-0.3,2.2c2.5,7.8,5,15.7,7.6,23.5c0.3,0.8,1.1,1.6,1.8,1.9c7.5,2.9,15,5.7,22.5,8.5c1.2,0.4,1.8,0.3,2.6-0.7
				c3.3-4.4,6.9-8.6,9.9-13.2c2.4-3.6,5.9-5.2,9.4-7.1c0.1,0.1,0.2,0.2,0.4,0.4c-0.5,0.5-0.8,1.1-1.4,1.4c-3.6,1.5-6.2,4-8.4,7.2
				c-2.2,3.2-4.6,6.2-6.6,9.6c2.3-1.6,4.6-3.3,6.9-4.9c3.1-2.2,6.2-4.3,9.1-6.6c0.8-0.6,1.6-1.7,2-2.7c1.6-4.2,3-8.5,4.5-12.8
				c0.2-0.5,0.5-1,0.8-1.5c0.2,0,0.4,0.1,0.6,0.1c0.1,0.8,0.2,1.5,0.1,2.3c-0.3,4.2-0.7,8.5-1,12.7c0,0.6,0.3,1.5,0.7,1.8
				c6.7,4.7,13.4,9.3,20.3,14c4.3-5.7,8.6-11.3,13-17.1c-2.7-1.4-5.2-2.7-7.7-4c-4.8-2.4-9.6-4.8-14.3-7.3c-1.1-0.5-1.9-0.7-3,0
				c-1.4,0.9-3,1.6-4.9,2.2c0.3-0.4,0.6-1.1,1-1.2c4.3-1.3,5.5-4.4,5.8-8.6c0.5-6.3,1.6-12.5,2.5-18.7c0.1-0.4,0.1-0.8,0.1-1.7
				c-2.1,2.2-3.4,4.7-5.3,6.6c-0.3-0.2-0.5-0.5-0.8-0.7c2.5-3.3,5-6.5,7.4-9.8c0.1,0,0.2,0.1,0.3,0.1c-0.6,4.7-1.2,9.4-1.8,14.1
				c-0.6,4.8-1.2,9.6-2,14.4c-0.2,1.3,0.1,1.9,1.3,2.5c7.2,3.6,14.3,7.3,21.5,10.9c0.5,0.3,1,0.6,1.6,0.9
				c-4.3,5.7-8.5,11.3-13.1,17.2c2.3-0.6,4.1-1,5.9-1.5c6-1.6,12.1-3.3,18.1-4.9c0.9-0.2,2-0.1,2.8,0.3c7.3,4.1,14.5,8.3,21.7,12.5
				c0.5,0.3,0.8,0.7,1.2,1.1c-0.1,0.2-0.3,0.4-0.4,0.6c-0.6-0.3-1.3-0.7-1.9-1c-6.9-4-13.8-8-20.7-11.9c-0.8-0.4-1.9-0.6-2.8-0.4
				c-8,2.1-15.9,4.3-23.8,6.4c-0.9,0.2-2.2,0.1-3-0.3c-7.2-3.3-14.3-6.7-21.5-10c-0.7-0.3-1.7-0.4-2.3-0.1
				c-7.2,3.4-14.3,7-21.5,10.5c-0.4,0.2-0.8,1-0.8,1.5c0,8.4-0.1,16.7,0,25.1c0,0.7,0.8,1.5,1.4,1.9c4,2.4,8.2,4.7,12.3,7.1
				c0.5,0.3,0.9,0.8,1.4,1.1c-0.1,0.2-0.2,0.3-0.3,0.5c-0.5-0.2-1-0.3-1.4-0.6c-3.4-1.9-6.8-3.8-10.1-5.8c-1-0.6-1.7-0.5-2.6,0
				c-4.6,2.7-9.1,5.3-13.7,8c-0.5,0.3-1.1,0.3-1.6,0.5C499.6,343.9,499.5,343.7,499.5,343.5z M353.2,356.6
				C353.2,356.6,353.2,356.6,353.2,356.6c-1,0-1.9-0.1-2.9,0c-0.6,0.1-1.3,0.4-1.6,0.9c-4.4,7-8.7,14.1-13,21.2
				c-0.3,0.5-0.4,1.5-0.1,2.1c3.9,7.3,7.8,14.6,11.9,21.9c0.3,0.6,1.2,1.1,1.9,1.1c8.1,0.3,16.2,0.6,24.3,0.8c0.8,0,1.9-0.5,2.3-1.1
				c4.3-6.8,8.5-13.8,12.8-20.7c0.6-1,0.7-1.8,0.1-2.8c-3.9-7.2-7.8-14.4-11.7-21.5c-0.3-0.5-1.1-1.1-1.7-1.1
				C368,357,360.6,356.8,353.2,356.6z M415.6,300.3c0.4-0.1,0.6-0.1,0.7-0.2c8.3-1.8,16.6-3.5,24.8-5.3c0.5-0.1,1.1-0.7,1.2-1.2
				c2.6-7.9,5.2-15.9,7.7-23.8c0.2-0.6-0.1-1.5-0.5-1.9c-5.5-6.1-11-12.2-16.5-18.3c-0.8-0.9-1.4-1-2.5-0.8
				c-7.8,1.7-15.7,3.4-23.5,5c-1.1,0.2-1.7,0.7-2.1,1.8c-2.4,7.7-5,15.4-7.4,23.1c-0.2,0.7,0,1.9,0.5,2.5c5.3,6.1,10.8,12,16.2,18
				C414.8,299.7,415.3,300.1,415.6,300.3z"/>
			<path fill="#2EE8DA" d="M546.5,270.2c-0.7-0.5-1.7-0.8-2.2-1.5c-2.1-3-4.1-6-6.6-9c0,0.9,0,1.9,0,2.8c0,2,0,4,0,5.9
				c0,1.2-0.3,1.7-1.7,1.3c0-4.4,0-8.9,0-14.2c1.2,0.8,2.2,1.2,2.7,1.9c2.1,2.9,4,5.9,6.5,8.7c0-2.9,0-5.8,0-8.6
				c0-1.3,0.1-1.3,1.7-1.2c0,4.4,0,8.9,0,13.3C546.8,269.8,546.6,270,546.5,270.2z"/>
			<path fill="#2EE8DA" d="M389.9,333.7c0-2.9,0-5.7,0-8.6c0-0.5,0.5-1,0.7-1.4c0.3,0.5,0.9,1,0.9,1.4c0.1,4,0,8,0,12
				c-1.3,0.6-2,0.2-2.7-0.8c-1.9-3-4-5.9-6.4-8.8c0,3.2,0,6.5,0,9.7c-0.2,0.1-0.5,0.2-0.7,0.4c-0.4-0.4-1.1-0.9-1.1-1.3
				c-0.1-4.1-0.1-8.2-0.1-12.2c1.1-0.7,1.8-0.4,2.5,0.6c1.7,2.6,3.5,5.2,5.2,7.8c0.3,0.5,0.7,1,1.1,1.5
				C389.7,333.8,389.8,333.8,389.9,333.7z"/>
			<path fill="#2EE8DA" d="M461.3,308.3c0,3.3,0,6.6,0,10c-0.9,0.3-1.7,0.5-1.7-0.8c0-4.1,0-8.3,0-12.4c1.3-0.7,2.1-0.2,2.8,0.9
				c2,3.1,4.1,6.1,6.5,9.1c0-3.3,0-6.6,0-10c0.2-0.1,0.3-0.3,0.5-0.4c0.4,0.4,1.2,0.7,1.2,1.1c0.1,4.2,0.1,8.4,0.1,12.5
				c-1.4,0.6-2.1,0.1-2.8-1c-2-3.1-4.1-6.1-6.1-9.2C461.5,308.2,461.4,308.3,461.3,308.3z"/>
			<path fill="#2EE8DA" d="M461.5,326.5c2.5,0,4.6,0,7.1,0c0-1.4,0-2.8,0-4.2c-0.1-1.4,0.5-1.7,1.9-1.2c0,4.4,0,8.9,0,13.4
				c-0.6,0-1.1,0-1.8,0c0-2,0-4,0-6.1c-2.4,0-4.7,0-7.2,0c0,1.6,0,3.2,0,4.8c0,1.2-0.3,1.7-1.8,1.2c0-4.2,0-8.4,0-12.7
				c0-0.3,0.6-0.6,0.9-0.9c0.3,0.3,0.7,0.7,0.8,1C461.6,323.4,461.5,324.9,461.5,326.5z"/>
			<path fill="#2EE8DA" d="M278,289.1c0-3.2,0-6.5,0-9.7c1-0.4,1.7-0.6,1.7,0.8c0,4.2,0,8.4-0.5,13.1c-0.7-0.4-1.5-0.7-2-1.3
				c-2.1-3-4.2-6.1-6.6-9c0,2.9,0,5.8,0,8.7c0,1.2-0.3,1.7-1.7,1.2c0-4.5,0-9,0-13.5c1.2-0.5,1.8-0.1,2.5,0.9c2,3,4.1,6,6.1,9
				C277.7,289.1,277.9,289.1,278,289.1z"/>
			<path fill="#2EE8DA" d="M531.5,347.1c0-4.3,2.7-7.2,6.6-7.1c4,0,6.7,2.9,6.7,7.3c0,4.1-2.7,7-6.5,7.1
				C534.2,354.3,531.5,351.4,531.5,347.1z M542.8,347c0-2.5-1.1-4.5-2.8-5.2c-1.8-0.7-3.5-0.4-5,0.8c-2.2,1.9-2.1,6.9,0.1,8.8
				c1.5,1.3,3.2,1.6,5,0.7C542.2,351.2,542.9,349.3,542.8,347z"/>
			<path fill="#2EE8DA" d="M318.3,316.8c0-4.3,2.8-7.2,6.8-7.1c3.8,0.1,6.5,3.2,6.4,7.4c-0.1,4.2-2.7,7-6.7,7
				C320.9,324,318.3,321.1,318.3,316.8z M329.6,317c0-3.6-2.1-6-5-5.7c-2.3,0.2-3.9,1.7-4.3,3.9c-0.6,3.1,0.3,5.7,2.4,6.7
				C326.2,323.7,329.6,321.3,329.6,317z"/>
			<path fill="#2EE8DA" d="M483.1,346.9c0.3-4.4,3.1-7.3,7-7c4.5,0.4,6.4,3.6,6.3,7.5c-0.1,4.5-3.1,7.1-7.3,6.8
				C485.5,354,482.8,350.7,483.1,346.9z M484.9,347.1c0,3.3,1.7,5.5,4.5,5.6c2.2,0.1,3.9-1,4.6-3c0.9-2.5,0.3-5.7-1.4-7.1
				c-1.5-1.3-3.3-1.4-5-0.6C485.5,343,485,344.9,484.9,347.1z"/>
			<path fill="#2EE8DA" d="M351.2,269.4c4,0,6.6,2.9,6.6,7.3c-0.1,4.1-2.8,6.9-6.6,6.9c-4,0-6.6-2.8-6.6-7
				C344.5,271.9,347,269.3,351.2,269.4z M355.8,276.3c0-3.3-1.9-5.6-4.7-5.6c-2.9,0-4.8,2.4-4.8,5.8c0,3.2,1.9,5.4,4.7,5.4
				C354,282,355.8,279.9,355.8,276.3z"/>
			<path fill="#2EE8DA" d="M379.9,233.4c0-4.5,2.5-7.3,6.5-7.3c4,0,6.7,3,6.6,7.3c0,4.1-2.8,7-6.7,7
				C382.4,240.4,379.9,237.6,379.9,233.4z M391.1,233.2c0-3.4-1.9-5.6-4.7-5.6c-2.9,0-4.8,2.2-4.8,5.7c0,3.2,2,5.5,4.9,5.5
				C389.3,238.8,391.1,236.6,391.1,233.2z"/>
			<path fill="#2EE8DA" d="M396.5,329.1c2.5,0,4.8,0,7.4,0c0-1.5-0.1-2.9,0-4.2c0-0.4,0.6-0.8,0.9-1.2c0.3,0.4,0.7,0.8,0.8,1.2
				c0.1,4.1,0,8.1,0,12.3c-1.1,0.4-1.8,0.3-1.8-1c0-1.7,0-3.4,0-5.2c-2.5,0-4.8,0-7.4,0c0,1.7,0.1,3.4,0,5.1c0,0.5-0.5,0.9-0.8,1.4
				c-0.3-0.4-0.8-0.9-0.8-1.3c-0.1-3.7-0.1-7.4,0-11.1c0-0.4,0.6-0.9,0.9-1.3c0.3,0.5,0.7,0.9,0.8,1.4
				C396.6,326.4,396.5,327.7,396.5,329.1z"/>
			<path fill="#2EE8DA" d="M397.1,300.5c-2.5,0-4.8,0-7.4,0c0,1.7,0.1,3.4,0,5.1c0,0.5-0.5,0.9-0.8,1.4c-0.3-0.4-0.8-0.9-0.8-1.3
				c-0.1-3.8-0.1-7.6,0-11.5c0-0.4,0.5-0.8,0.8-1.2c0.3,0.4,0.6,0.8,0.9,1.2c0.1,0.1,0,0.3,0,0.4c0.2,1.4,0.1,3.9,0.5,4
				c2,0.5,4.1,0.3,6.2,0.2c0.2,0,0.6-0.8,0.6-1.2c0.1-1.2,0-2.4,0.1-3.6c0-0.3,0.6-0.6,0.9-0.9c0.3,0.3,0.7,0.6,0.7,0.9
				c0,4.1,0.1,8.2,0,12.2c0,0.3-0.6,0.6-0.9,0.9c-0.2-0.4-0.7-0.7-0.7-1.1C397.1,304.1,397.1,302.3,397.1,300.5z"/>
			<path fill="#2EE8DA" d="M307.7,217.7c0,7.4,0,14.8,0,22.1c-0.2,0-0.5,0-0.7,0c-0.1-7.1-0.3-14.3-0.4-21.4c0-0.3,0.4-0.6,0.6-0.9
				C307.3,217.6,307.5,217.6,307.7,217.7z"/>
			<path fill="#2EE8DA" d="M346.7,330.8c5.6-3.9,11.2-7.7,16.8-11.6c0.2,0.1,0.3,0.3,0.5,0.4c-0.2,0.3-0.3,0.8-0.6,1
				c-5.4,3.6-10.6,7.6-16.2,11C347,331.3,346.8,331,346.7,330.8z"/>
			<path fill="#2EE8DA" d="M481.3,293.6c-2.2-6.8-4.3-13.3-6.5-20.1C476.6,274.4,482.3,291.9,481.3,293.6z"/>
			<path fill="#2EE8DA" d="M395.2,206.7c-1.7,5.7-3.3,11.3-5.6,16.7C389.1,221.7,393.9,207.2,395.2,206.7z"/>
			<path fill="#2EE8DA" d="M538.5,374.9c-1-1-1.5-12.1-1-16.5c0-0.4,0.4-0.7,0.5-1c0.2,0.1,0.3,0.1,0.5,0.2
				C538.5,363.2,538.5,368.9,538.5,374.9z"/>
			<path fill="#2EE8DA" d="M353,248.5c-0.5,5.8-0.9,11.6-1.4,17.5c-0.2,0-0.4,0.1-0.6,0.1c-0.2-0.5-0.5-0.9-0.5-1.4
				c0.3-4.8,0.7-9.6,1.1-14.4c0.1-0.7,0.4-1.3,0.6-2C352.5,248.4,352.8,248.4,353,248.5z"/>
			<path fill="#2EE8DA" d="M248.3,296.4c5.6-2.3,10.7-4.7,16-6.5C263.3,291.7,249.9,297.2,248.3,296.4z"/>
			<path fill="#2EE8DA" d="M350.6,399.3c-1.6-0.9-10.8-18.2-10.2-20c3.7,6.8,7.2,13.2,10.7,19.7
				C350.9,399.1,350.8,399.2,350.6,399.3z"/>
			<path fill="#2EE8DA" d="M373.7,362.2c-7.3-0.2-14.7-0.3-21.9-1.2c7.4-0.4,14.7-0.2,22,0.2C373.8,361.6,373.7,361.9,373.7,362.2z"
				/>
			<path fill="#2EE8DA" d="M373.2,400.3c-0.4-0.5-0.7-0.7-0.7-0.8c3.7-6.2,7.5-12.4,11.3-18.7c0.2,0.1,0.4,0.1,0.6,0.2
				c0,0.4,0.1,0.9-0.1,1.2C380.6,388.2,377,394.1,373.2,400.3z"/>
			<path fill="#2EE8DA" d="M430.6,253.9c-7.2,1.5-14.3,3.1-21.5,4.6c-0.1-0.3-0.1-0.6-0.2-0.8c3.4-1.3,7.1-1.7,10.7-2.5
				c3.6-0.8,7.2-1.5,10.8-2.3C430.5,253.2,430.6,253.6,430.6,253.9z"/>
			<path fill="#2EE8DA" d="M438.6,290.8c-0.5-1.6,5.7-20.3,7.4-21.1c-2.4,7.4-4.6,14.3-6.9,21.3C439,290.9,438.8,290.8,438.6,290.8z
				"/>
			<path fill="#2EE8DA" d="M416.6,295.8c-4.9-5.4-9.8-10.8-14.7-16.2c0.1-0.2,0.3-0.4,0.4-0.6c0.5,0.3,1.1,0.6,1.5,1
				c3.2,3.5,6.4,7.1,9.6,10.6c1,1.1,2,2.2,2.9,3.3c0.4,0.4,0.6,0.9,0.9,1.4C417,295.5,416.8,295.6,416.6,295.8z"/>
		</g>
	</g>
</g>
<linearGradient id="SVGID_13_" gradientUnits="userSpaceOnUse" x1="884.0237" y1="92.2518" x2="895.0237" y2="92.2518">
	<stop  offset="0" style="stop-color:#282880"/>
	<stop  offset="9.705802e-002" style="stop-color:#2A2C83"/>
	<stop  offset="0.1988" style="stop-color:#2F398B"/>
	<stop  offset="0.3026" style="stop-color:#384E98"/>
	<stop  offset="0.4073" style="stop-color:#456BAB"/>
	<stop  offset="0.4888" style="stop-color:#5187BD"/>
	<stop  offset="0.601" style="stop-color:#3B5C99"/>
	<stop  offset="0.722" style="stop-color:#273478"/>
	<stop  offset="0.8329" style="stop-color:#191860"/>
	<stop  offset="0.9292" style="stop-color:#100651"/>
	<stop  offset="1" style="stop-color:#0D004C"/>
</linearGradient>
<path fill="url(#SVGID_13_)" d="M884,42.1v103.1c0,0,4,11.3,11,0V42.1C895,42.1,890,24.6,884,42.1z"/>
<linearGradient id="SVGID_14_" gradientUnits="userSpaceOnUse" x1="843.0631" y1="185.9542" x2="938.1072" y2="185.9542">
	<stop  offset="0" style="stop-color:#00BAC3"/>
	<stop  offset="0.4888" style="stop-color:#9CD6D3"/>
	<stop  offset="1" style="stop-color:#00617C"/>
</linearGradient>
<path fill="url(#SVGID_14_)" d="M886.4,149.3c-20.5,1.2-50,12.2-42,70.8c0,0,61.7,7.6,93.1-3.4C937.5,216.7,947.6,145.8,886.4,149.3
	z"/>
<linearGradient id="SVGID_15_" gradientUnits="userSpaceOnUse" x1="1134.0237" y1="92.2518" x2="1145.0237" y2="92.2518">
	<stop  offset="0" style="stop-color:#282880"/>
	<stop  offset="9.705802e-002" style="stop-color:#2A2C83"/>
	<stop  offset="0.1988" style="stop-color:#2F398B"/>
	<stop  offset="0.3026" style="stop-color:#384E98"/>
	<stop  offset="0.4073" style="stop-color:#456BAB"/>
	<stop  offset="0.4888" style="stop-color:#5187BD"/>
	<stop  offset="0.601" style="stop-color:#3B5C99"/>
	<stop  offset="0.722" style="stop-color:#273478"/>
	<stop  offset="0.8329" style="stop-color:#191860"/>
	<stop  offset="0.9292" style="stop-color:#100651"/>
	<stop  offset="1" style="stop-color:#0D004C"/>
</linearGradient>
<path fill="url(#SVGID_15_)" d="M1134,42.1v103.1c0,0,4,11.3,11,0V42.1C1145,42.1,1140,24.6,1134,42.1z"/>
<linearGradient id="SVGID_16_" gradientUnits="userSpaceOnUse" x1="1093.0631" y1="185.9542" x2="1188.1072" y2="185.9542">
	<stop  offset="0" style="stop-color:#00BAC3"/>
	<stop  offset="0.4888" style="stop-color:#9CD6D3"/>
	<stop  offset="1" style="stop-color:#00617C"/>
</linearGradient>
<path fill="url(#SVGID_16_)" d="M1136.4,149.3c-20.5,1.2-50,12.2-42,70.8c0,0,61.7,7.6,93.1-3.4
	C1187.5,216.7,1197.6,145.8,1136.4,149.3z"/>
<line fill="none" stroke="#2E8B98" stroke-miterlimit="10" x1="139.1" y1="707.6" x2="1484.8" y2="707.6"/>
<line fill="none" stroke="#2E8B98" stroke-miterlimit="10" x1="84" y1="756.9" x2="1449" y2="756.9"/>
<g>
	
		<image overflow="visible" opacity="0.75" width="161" height="433" xlink:href="EC246D2F.png"  transform="matrix(1 0 0 1 0 61.9763)">
	</image>
	<g>
		<polygon fill="#B2ED7A" points="52,113.2 108.2,152.2 108.2,400.1 52,442.6 		"/>
	</g>
</g>
<line fill="none" stroke="#2E8B98" stroke-miterlimit="10" x1="484.7" y1="700" x2="454.6" y2="776.6"/>
<line fill="none" stroke="#2E8B98" stroke-miterlimit="10" x1="671.1" y1="700" x2="707.8" y2="776.6"/>
<path fill="#41B78A" stroke="#156445" stroke-width="0.5669" stroke-miterlimit="10" d="M184.6,606.5"/>
<path fill="#41B78A" stroke="#156445" stroke-width="0.5669" stroke-miterlimit="10" d="M225.5,523.1"/>
<linearGradient id="SVGID_17_" gradientUnits="userSpaceOnUse" x1="336.0237" y1="17" x2="1019.0237" y2="17">
	<stop  offset="0" style="stop-color:#282880"/>
	<stop  offset="9.705802e-002" style="stop-color:#2A2C83"/>
	<stop  offset="0.1988" style="stop-color:#2F398B"/>
	<stop  offset="0.3026" style="stop-color:#384E98"/>
	<stop  offset="0.4073" style="stop-color:#456BAB"/>
	<stop  offset="0.4888" style="stop-color:#5187BD"/>
	<stop  offset="0.601" style="stop-color:#3B5C99"/>
	<stop  offset="0.722" style="stop-color:#273478"/>
	<stop  offset="0.8329" style="stop-color:#191860"/>
	<stop  offset="0.9292" style="stop-color:#100651"/>
	<stop  offset="1" style="stop-color:#0D004C"/>
</linearGradient>
<path opacity="0.4" fill="url(#SVGID_17_)" d="M1014,0c-2.9,0-5,2.2-5,5v18H346V5c0-2.8-2.1-5-5-5c-2.9,0-5,2.2-5,5v22
	c0,0.2,0,0.5,0.1,0.7c0,0.3-0.1,0.5-0.1,0.8c0,3,2.8,5.5,6.2,5.5h666.5c1.9,0,3.7-0.8,4.8-2c0.1,0,0.2,0,0.3,0c2.9,0,5.2-2.2,5.2-5
	V5C1019,2.2,1016.9,0,1014,0z"/>
<path fill="#FFFFFF" d="M261.5,223.1"/>
<rect x="54" y="10" fill="none" width="1397.4" height="726.1"/>
<linearGradient id="SVGID_18_" gradientUnits="userSpaceOnUse" x1="312.0237" y1="27" x2="1395.0237" y2="27">
	<stop  offset="0" style="stop-color:#282880"/>
	<stop  offset="9.705802e-002" style="stop-color:#2A2C83"/>
	<stop  offset="0.1988" style="stop-color:#2F398B"/>
	<stop  offset="0.3026" style="stop-color:#384E98"/>
	<stop  offset="0.4073" style="stop-color:#456BAB"/>
	<stop  offset="0.4888" style="stop-color:#5187BD"/>
	<stop  offset="0.601" style="stop-color:#3B5C99"/>
	<stop  offset="0.722" style="stop-color:#273478"/>
	<stop  offset="0.8329" style="stop-color:#191860"/>
	<stop  offset="0.9292" style="stop-color:#100651"/>
	<stop  offset="1" style="stop-color:#0D004C"/>
</linearGradient>
<path fill="url(#SVGID_18_)" d="M1387,10c-4.6,0-8,2.2-8,5v18H328V15c0-2.8-3.4-5-8-5c-4.6,0-8,2.2-8,5v22c0,0.2,0.1,0.5,0.1,0.7
	c-0.1,0.3-0.1,0.5-0.1,0.8c0,3,4.4,5.5,9.8,5.5h1056.8c3.1,0,5.8-0.8,7.6-2c0.1,0,0.3,0,0.4,0c4.6,0,8.3-2.2,8.3-5V15
	C1395,12.2,1391.6,10,1387,10z"/>
<polyline fill="none" stroke="#2E8B98" stroke-miterlimit="10" points="322.3,776.6 360.5,718.3 372.5,700 "/>
<linearGradient id="SVGID_19_" gradientUnits="userSpaceOnUse" x1="199.9671" y1="752.7744" x2="199.9671" y2="752.7744">
	<stop  offset="0" style="stop-color:#AB6766"/>
	<stop  offset="1.376081e-002" style="stop-color:#AA6565"/>
	<stop  offset="0.5" style="stop-color:#922E40"/>
	<stop  offset="0.7306" style="stop-color:#7A3142"/>
	<stop  offset="1" style="stop-color:#633343"/>
</linearGradient>
<path fill="url(#SVGID_19_)" d="M200,752.8"/>
<g>
	<rect x="730.9" y="301.3" fill="#FFFFFF" width="120.2" height="5.6"/>
	<g>
		<path fill="#B3C1A7" d="M737.5,291.6c2.9-6.9,6.7-13.4,10.1-20c1.1-2.1,2.3-4.2,3.5-6.3c0.3-0.4,0.3-0.9,0.3-1.4
			c0-3.4,0-6.8,0-10.2c0-0.7-0.2-1.2-0.7-1.7c-0.5-0.5-1.2-0.8-1.2-1.6c5.3,0,10.6,0,16,0c-0.2,0.8-0.9,1.2-1.5,1.7
			c-0.3,0.4-0.5,0.7-0.5,1.2c0,3.6,0,7.2,0,10.9c0,1.1,0.6,2,1.1,2.9c2.6,5.5,5.3,11,7.9,16.6c1.2,2.6,2.7,5.1,3.4,7.9
			c0.8,3.5-1.2,9-7.1,9c-7.9,0-15.8,0-23.8,0c-3.6,0-5.9-1.7-7.1-5.2c-0.1-0.3-0.1-0.6-0.4-0.8C737.5,293.6,737.5,292.6,737.5,291.6
			z M762.3,250.9c-0.4,0-0.7,0.1-1.1,0.1c-3,0-5.9,0-8.9,0c0,0.4,0.2,0.5,0.4,0.7c0.8,0.6,1,1.4,1,2.3c-0.1,3.4,0,6.7,0,10.1
			c0,0.6-0.1,1.1-0.3,1.7c-0.7,1.6-1.4,3.1-2.1,4.8c3.8,0,7.5,0,11.1,0c0.1,0.1,0.1,0.2,0.2,0.2c-3.8,0-7.7,0-11.5,0
			c-0.3,0-0.7,0-1,0c0.5-1.7,1.5-3.2,2.3-4.9c0.3-0.6,0.4-1.2,0.4-1.8c0-3.4-0.1-6.7,0-10.1c0.1-1.4-0.7-2-1.5-2.8
			c-0.2-0.2-0.4-0.3-0.6-0.1c-0.2,0.2,0.1,0.4,0.3,0.5c0.4,0.4,0.8,0.8,0.8,1.5c0,3.8,0,7.5,0,11.3c0,0.4-0.1,0.8-0.3,1.1
			c-1.2,2.2-2.5,4.4-3.7,6.6c-2.9,5.7-5.8,11.3-8.7,17c-0.7,1.4-1.1,2.9-1,4.5c0.1,3,2.4,6.4,6.4,6.4c8.2,0,16.4,0,24.5,0
			c0.7,0,1.3-0.1,2-0.3c3.7-1.1,5.6-5.9,3.9-9.7c-1.8-3.9-3.6-7.8-5.4-11.7c-1.8-3.8-3.7-7.6-5.5-11.4c-0.5-1-1.1-2-1-3.2
			c0.1-3.1,0.1-6.2,0-9.3c0-1.4,0.3-2.5,1.4-3.3c0,0,0-0.1,0-0.2C763.7,250.9,763,250.9,762.3,250.9z"/>
		<path fill="#73E3C4" d="M751,270.8c3.8,0,7.7,0,11.5,0c1.9,4.4,3.9,8.8,5.8,13.3c1.1,2.6,2.4,5,3.3,7.7c0.8,2.3,0.3,4-1.5,5.3
			c-1,0.7-2,1.1-3.2,1.3c-2.2,0.4-4.4,0.6-6.7,0.8c-0.7,0.1-1.3,0.1-2,0.2c-3.9,0-7.8-0.2-11.6-1c-4.4-1-6-3.3-4.4-7.2
			c1.5-3.8,3.3-7.6,4.9-11.3C748.5,276.8,749.8,273.8,751,270.8z"/>
		<path fill="#E7FAD5" d="M762.4,270.6c-3.7,0-7.3,0-11.1,0c0.7-1.7,1.4-3.3,2.1-4.8c0.2-0.5,0.3-1.1,0.3-1.7c0-3.4,0-6.7,0-10.1
			c0-1-0.1-1.8-1-2.3c-0.2-0.1-0.4-0.3-0.4-0.7c3,0,5.9,0,8.9,0c0,0.2-0.1,0.4-0.3,0.6c-0.8,0.6-0.9,1.4-0.9,2.3c0,3.3,0,6.7,0,10
			c0,0.9,0.2,1.7,0.6,2.5C761.2,267.7,761.8,269.2,762.4,270.6z"/>
		<path fill="#E4F6D2" d="M762.3,250.9c0.7,0,1.3,0,2,0c0,0.1,0,0.2,0,0.2c-1.1,0.8-1.5,1.9-1.4,3.3c0.1,3.1,0.1,6.2,0,9.3
			c0,1.3,0.5,2.2,1,3.2c1.8,3.8,3.7,7.6,5.5,11.4c1.8,3.9,3.7,7.8,5.4,11.7c1.7,3.8-0.2,8.6-3.9,9.7c-0.6,0.2-1.3,0.3-2,0.3
			c-8.2,0-16.4,0-24.5,0c-4,0-6.2-3.4-6.4-6.4c-0.1-1.6,0.3-3.1,1-4.5c2.9-5.7,5.8-11.4,8.7-17c1.2-2.2,2.4-4.4,3.7-6.6
			c0.2-0.3,0.3-0.7,0.3-1.1c0-3.8,0-7.5,0-11.3c0-0.7-0.4-1.1-0.8-1.5c-0.1-0.1-0.4-0.3-0.3-0.5c0.2-0.2,0.4-0.1,0.6,0.1
			c0.8,0.8,1.5,1.5,1.5,2.8c-0.1,3.4-0.1,6.7,0,10.1c0,0.7-0.2,1.2-0.4,1.8c-0.8,1.6-1.8,3.1-2.3,4.9c-0.4,0.3-0.6,0.7-0.8,1.1
			c-1.9,3.6-3.9,7.2-5.8,10.8c-0.7,1.3-1.4,2.7-2.1,4c-0.8,1.4-1.6,2.8-2.1,4.4c-1.1,3.9,1.7,8.5,6.5,8.3c0.3,0.2,0.6,0.1,0.9,0.1
			c7,0,14,0,21,0c0.7,0,1.5-0.1,2.1-0.3c1.5-0.5,2.8-1.2,3.7-2.6c0.8-1.2,1.2-2.5,1.2-3.9c0-2.2-1.2-4-2.1-5.9
			c0-0.3-0.1-0.5-0.3-0.7l0,0c-0.1-0.1-0.1-0.3-0.2-0.4l0,0c0-0.2,0-0.3-0.2-0.4l0,0c0-0.2,0-0.3-0.2-0.4l0,0c0-0.2,0-0.3-0.2-0.4
			l0,0c0-0.2,0-0.3-0.2-0.4l0,0c0-0.2,0-0.3-0.2-0.4l0,0c0-0.2,0-0.3-0.2-0.4l0,0c-0.1-0.1-0.1-0.2-0.2-0.2c0-0.1,0-0.1,0-0.2
			c-1.9-3.9-3.8-7.8-5.7-11.7c-0.3-0.5-0.6-0.7-1.2-0.6c-0.8-1.6-1.6-3.3-2.4-4.9c-0.3-0.5-0.4-1-0.4-1.6c0-3.3,0-6.6,0-10
			c0-1.2,0-2.3,1.2-3.1C762.2,251.2,762.3,251,762.3,250.9z"/>
		<path fill="#5FBBA1" d="M745.6,299.5c-4.8,0.2-7.5-4.5-6.5-8.3c0.4-1.6,1.3-3,2.1-4.4c0.8-1.3,1.4-2.7,2.1-4
			c1.9-3.6,3.9-7.2,5.8-10.8c0.2-0.4,0.5-0.8,0.8-1.1c0.3,0,0.7,0,1,0c-1.3,3-2.5,5.9-3.8,8.9c-1.6,3.8-3.4,7.5-4.9,11.3
			c-1.5,4,0,6.3,4.4,7.2c3.8,0.8,7.7,1.1,11.6,1c-0.3,0.3-0.7,0.2-1.1,0.2C753.3,299.5,749.4,299.5,745.6,299.5z"/>
		<path fill="#FDFDFD" d="M762.3,250.9c-0.1,0.1-0.1,0.3-0.2,0.4c-1.1,0.8-1.2,1.9-1.2,3.1c0.1,3.3,0,6.6,0,10
			c0,0.6,0.1,1.1,0.4,1.6c0.8,1.6,1.6,3.3,2.4,4.9c2.8,6,5.7,12,8.5,18.1c0.6,1.3,1.4,2.5,1.5,3.9c0.1,2.6-1.5,4.9-4.2,6.2
			c-1.2,0.4-2.5,0.6-3.7,0.5c-1.5-0.1-3-0.1-4.5-0.1c-0.3,0-0.7,0.1-1-0.2c2.2-0.2,4.5-0.4,6.7-0.8c1.1-0.2,2.2-0.7,3.2-1.3
			c1.8-1.2,2.3-2.9,1.5-5.3c-0.9-2.6-2.2-5.1-3.3-7.7c-1.9-4.4-3.9-8.9-5.8-13.3c-0.1-0.1-0.1-0.2-0.2-0.2c-0.6-1.4-1.1-2.8-1.8-4.2
			c-0.4-0.8-0.6-1.6-0.6-2.5c0-3.3,0-6.7,0-10c0-0.9,0.1-1.7,0.9-2.3c0.2-0.1,0.3-0.3,0.3-0.6C761.6,251,762,250.9,762.3,250.9z"/>
		<path fill="#B3C1A7" d="M760.2,299.1c0.3,0.3,0.7,0.2,1,0.2c1.5,0.1,3,0,4.5,0.1c1.2,0.1,2.5-0.1,3.7-0.5c0.1,0.1,0.2,0.2,0.2,0.4
			c-0.7,0.2-1.4,0.3-2.1,0.3c-7,0-14,0-21,0c-0.3,0-0.6,0.1-0.9-0.1c3.9,0,7.7,0,11.6-0.1c0.4,0,0.8,0.1,1.1-0.2
			C758.9,299.2,759.6,299.2,760.2,299.1z"/>
		<path fill="#73E3C4" d="M769.7,299.3c-0.1-0.1-0.2-0.2-0.2-0.4c2.7-1.2,4.4-3.6,4.2-6.2c-0.1-1.5-0.9-2.7-1.5-3.9
			c-2.8-6-5.7-12-8.5-18.1c0.5-0.1,0.9,0.1,1.2,0.6c1.9,3.9,3.8,7.8,5.7,11.7c0,0.1,0,0.1,0,0.2c0.1,0.1,0.1,0.2,0.2,0.2l0,0
			c0,0.2,0,0.3,0.2,0.4l0,0c0,0.2,0,0.3,0.2,0.4l0,0c0,0.2,0,0.3,0.2,0.4l0,0c0,0.2,0,0.3,0.2,0.4l0,0c0,0.2,0,0.3,0.2,0.4l0,0
			c0,0.2,0,0.3,0.2,0.4l0,0c0,0.2,0,0.3,0.2,0.4l0,0c0,0.3,0,0.6,0.3,0.7c0.9,1.9,2.1,3.7,2.1,5.9c0,1.4-0.4,2.7-1.2,3.9
			C772.5,298.1,771.2,298.8,769.7,299.3z"/>
		<path fill="#5FBBA1" d="M772.5,286.9c-0.3-0.2-0.4-0.4-0.3-0.7C772.4,286.4,772.5,286.6,772.5,286.9z"/>
		<path fill="#5FBBA1" d="M771,283.9c-0.2-0.1-0.2-0.2-0.2-0.4C771,283.6,771,283.7,771,283.9z"/>
		<path fill="#5FBBA1" d="M771.2,284.3c-0.2-0.1-0.2-0.2-0.2-0.4C771.2,284,771.2,284.1,771.2,284.3z"/>
		<path fill="#5FBBA1" d="M771.4,284.7c-0.2-0.1-0.2-0.2-0.2-0.4C771.4,284.4,771.4,284.5,771.4,284.7z"/>
		<path fill="#5FBBA1" d="M771.6,285c-0.2-0.1-0.2-0.2-0.2-0.4C771.5,284.7,771.6,284.9,771.6,285z"/>
		<path fill="#5FBBA1" d="M771.8,285.4c-0.2-0.1-0.2-0.2-0.2-0.4C771.7,285.1,771.8,285.3,771.8,285.4z"/>
		<path fill="#5FBBA1" d="M772,285.8c-0.2-0.1-0.2-0.2-0.2-0.4C771.9,285.5,772,285.7,772,285.8z"/>
		<path fill="#5FBBA1" d="M772.2,286.2c-0.2-0.1-0.2-0.2-0.2-0.4C772,285.9,772.1,286.1,772.2,286.2z"/>
		<path fill="#5FBBA1" d="M770.8,283.5c-0.1-0.1-0.1-0.2-0.2-0.2C770.7,283.4,770.8,283.4,770.8,283.5z"/>
	</g>
	<g>
		<path fill="#B3C1A7" d="M776.7,292.3c2.7-6.3,6.1-12.3,9.2-18.4c1-2,2.1-3.9,3.2-5.8c0.2-0.4,0.3-0.8,0.3-1.3c0-3.1,0-6.2,0-9.3
			c0-0.6-0.2-1.1-0.6-1.5c-0.4-0.4-1.1-0.7-1.1-1.5c4.9,0,9.8,0,14.6,0c-0.2,0.7-0.9,1.1-1.3,1.6c-0.3,0.3-0.4,0.6-0.4,1.1
			c0,3.3,0,6.6,0,10c0,1,0.6,1.8,1,2.7c2.4,5.1,4.9,10.1,7.3,15.2c1.1,2.4,2.5,4.7,3.1,7.3c0.7,3.2-1.1,8.2-6.5,8.2
			c-7.3,0-14.5,0-21.8,0c-3.3,0-5.4-1.6-6.5-4.8c-0.1-0.2-0.1-0.5-0.3-0.7C776.7,294.2,776.7,293.3,776.7,292.3z M799.4,255
			c-0.3,0-0.7,0.1-1,0.1c-2.7,0-5.4,0-8.2,0c0,0.3,0.2,0.5,0.4,0.6c0.7,0.5,0.9,1.3,0.9,2.2c0,3.1,0,6.2,0,9.2c0,0.5-0.1,1-0.3,1.5
			c-0.7,1.4-1.3,2.9-1.9,4.4c3.5,0,6.8,0,10.2,0c0.1,0.1,0.1,0.1,0.2,0.2c-3.5,0-7,0-10.6,0c-0.3,0-0.6,0-0.9,0
			c0.5-1.6,1.4-3,2.1-4.4c0.3-0.5,0.4-1.1,0.4-1.7c0-3.1-0.1-6.2,0-9.3c0-1.2-0.6-1.9-1.3-2.6c-0.2-0.1-0.4-0.3-0.5-0.1
			c-0.2,0.2,0.1,0.4,0.2,0.5c0.4,0.4,0.8,0.7,0.8,1.4c0,3.4,0,6.9,0,10.3c0,0.4-0.1,0.7-0.2,1c-1.1,2-2.3,4-3.4,6.1
			c-2.7,5.2-5.3,10.4-8,15.6c-0.7,1.3-1,2.7-0.9,4.1c0.1,2.7,2.2,5.9,5.9,5.8c7.5,0,15,0,22.5,0c0.6,0,1.2-0.1,1.8-0.3
			c3.4-1,5.1-5.4,3.6-8.9c-1.6-3.6-3.3-7.1-5-10.7c-1.7-3.5-3.4-7-5-10.5c-0.4-0.9-1-1.8-0.9-3c0.1-2.8,0.1-5.7,0-8.6
			c0-1.3,0.2-2.3,1.3-3.1c0,0,0-0.1,0-0.2C800.7,255,800,255,799.4,255z"/>
		<path fill="#B4E174" d="M789.1,273.3c3.5,0,7,0,10.6,0c1.8,4.1,3.6,8.1,5.3,12.2c1,2.3,2.2,4.6,3,7c0.7,2.2,0.2,3.7-1.4,4.8
			c-0.9,0.6-1.9,1-2.9,1.2c-2,0.4-4.1,0.5-6.1,0.7c-0.6,0.1-1.2,0.1-1.8,0.2c-3.6,0-7.2-0.2-10.6-0.9c-4-0.9-5.5-3-4-6.6
			c1.4-3.5,3-6.9,4.5-10.4C786.8,278.8,787.9,276,789.1,273.3z"/>
		<path fill="#E7FAD5" d="M799.5,273.1c-3.4,0-6.7,0-10.2,0c0.7-1.5,1.3-3,1.9-4.4c0.2-0.5,0.3-1,0.3-1.5c0-3.1,0-6.2,0-9.2
			c0-0.9-0.1-1.6-0.9-2.2c-0.2-0.1-0.4-0.3-0.4-0.6c2.7,0,5.4,0,8.2,0c0,0.2-0.1,0.4-0.3,0.5c-0.8,0.5-0.8,1.3-0.8,2.1
			c0,3.1,0,6.1,0,9.2c0,0.8,0.2,1.5,0.5,2.3C798.4,270.5,798.9,271.8,799.5,273.1z"/>
		<path fill="#E4F6D2" d="M799.4,255c0.6,0,1.2,0,1.8,0c0,0.1,0,0.2,0,0.2c-1.1,0.8-1.3,1.8-1.3,3.1c0.1,2.8,0.1,5.7,0,8.6
			c0,1.1,0.5,2,0.9,3c1.6,3.5,3.4,7,5,10.5c1.7,3.6,3.4,7.1,5,10.7c1.6,3.5-0.2,7.9-3.6,8.9c-0.6,0.2-1.2,0.3-1.8,0.3
			c-7.5,0-15,0-22.5,0c-3.7,0-5.7-3.1-5.9-5.8c-0.1-1.5,0.2-2.8,0.9-4.1c2.7-5.2,5.3-10.4,8-15.6c1.1-2.1,2.2-4.1,3.4-6.1
			c0.2-0.3,0.2-0.6,0.2-1c0-3.4,0-6.9,0-10.3c0-0.7-0.4-1-0.8-1.4c-0.1-0.1-0.4-0.3-0.2-0.5c0.2-0.2,0.4-0.1,0.5,0.1
			c0.7,0.7,1.4,1.3,1.3,2.6c-0.1,3.1-0.1,6.2,0,9.3c0,0.6-0.1,1.1-0.4,1.7c-0.7,1.5-1.6,2.9-2.1,4.4c-0.3,0.3-0.6,0.7-0.8,1
			c-1.7,3.3-3.6,6.6-5.3,9.9c-0.6,1.2-1.3,2.5-2,3.7c-0.7,1.3-1.5,2.6-1.9,4c-1,3.5,1.6,7.8,5.9,7.6c0.3,0.2,0.6,0.1,0.9,0.1
			c6.4,0,12.8,0,19.3,0c0.7,0,1.3-0.1,2-0.3c1.4-0.5,2.6-1.1,3.4-2.4c0.7-1.1,1.1-2.3,1.1-3.6c0-2-1.1-3.6-1.9-5.4
			c0-0.3-0.1-0.5-0.3-0.7l0,0c-0.1-0.1-0.1-0.2-0.2-0.4l0,0c0-0.1,0-0.3-0.2-0.4l0,0c0-0.1,0-0.3-0.2-0.4l0,0c0-0.1,0-0.3-0.2-0.4
			l0,0c0-0.1,0-0.3-0.2-0.4l0,0c0-0.1,0-0.3-0.2-0.4l0,0c0-0.1,0-0.3-0.2-0.4l0,0c-0.1-0.1-0.1-0.1-0.2-0.2c0-0.1,0-0.1,0-0.2
			c-1.8-3.6-3.5-7.1-5.3-10.7c-0.2-0.5-0.6-0.6-1.1-0.6c-0.7-1.5-1.4-3-2.2-4.5c-0.2-0.5-0.3-0.9-0.3-1.4c0-3,0-6.1,0-9.1
			c0-1.1,0-2.2,1.1-2.9C799.4,255.3,799.4,255.1,799.4,255z"/>
		<path fill="#5FBBA1" d="M784.1,299.6c-4.4,0.2-6.9-4.1-5.9-7.6c0.4-1.4,1.2-2.8,1.9-4c0.7-1.2,1.3-2.5,2-3.7
			c1.7-3.3,3.6-6.6,5.3-9.9c0.2-0.4,0.4-0.8,0.8-1c0.3,0,0.6,0,0.9,0c-1.2,2.7-2.3,5.4-3.5,8.2c-1.5,3.5-3.2,6.9-4.5,10.4
			c-1.4,3.6,0,5.7,4,6.6c3.5,0.8,7.1,1,10.6,0.9c-0.3,0.3-0.7,0.1-1,0.1C791.2,299.6,787.6,299.6,784.1,299.6z"/>
		<path fill="#FDFDFD" d="M799.4,255c-0.1,0.1-0.1,0.3-0.2,0.4c-1,0.7-1.1,1.7-1.1,2.9c0.1,3,0,6.1,0,9.1c0,0.5,0.1,1,0.3,1.4
			c0.7,1.5,1.4,3,2.2,4.5c2.6,5.5,5.2,11,7.8,16.5c0.5,1.2,1.3,2.3,1.3,3.6c0.1,2.4-1.4,4.5-3.9,5.6c-1.1,0.4-2.3,0.5-3.4,0.4
			c-1.4-0.1-2.7-0.1-4.1-0.1c-0.3,0-0.6,0.1-0.9-0.2c2-0.2,4.1-0.3,6.1-0.7c1.1-0.2,2-0.6,2.9-1.2c1.6-1.1,2.1-2.7,1.4-4.8
			c-0.8-2.4-2-4.7-3-7c-1.7-4.1-3.5-8.1-5.3-12.2c-0.1-0.1-0.1-0.1-0.2-0.2c-0.5-1.3-1-2.6-1.6-3.9c-0.3-0.7-0.5-1.5-0.5-2.3
			c0-3.1,0-6.1,0-9.2c0-0.8,0.1-1.6,0.8-2.1c0.2-0.1,0.3-0.3,0.3-0.5C798.8,255.1,799.1,255.1,799.4,255z"/>
		<path fill="#B3C1A7" d="M797.5,299.2c0.3,0.3,0.6,0.1,0.9,0.2c1.4,0.1,2.7,0,4.1,0.1c1.1,0.1,2.3-0.1,3.4-0.4
			c0.1,0.1,0.1,0.2,0.2,0.3c-0.6,0.2-1.3,0.3-2,0.3c-6.4,0-12.8,0-19.3,0c-0.3,0-0.6,0.1-0.9-0.1c3.5,0,7.1,0,10.6-0.1
			c0.3,0,0.7,0.1,1-0.1C796.3,299.3,796.9,299.3,797.5,299.2z"/>
		<path fill="#73E3C4" d="M806.2,299.4c-0.1-0.1-0.1-0.2-0.2-0.3c2.5-1.1,4-3.3,3.9-5.6c-0.1-1.3-0.8-2.4-1.3-3.6
			c-2.6-5.5-5.2-11-7.8-16.5c0.5-0.1,0.8,0.1,1.1,0.6c1.7,3.6,3.5,7.1,5.3,10.7c0,0,0,0.1,0,0.2c0.1,0.1,0.1,0.1,0.2,0.2l0,0
			c0,0.1,0,0.3,0.2,0.4l0,0c0,0.1,0,0.3,0.2,0.4l0,0c0,0.1,0,0.3,0.2,0.4l0,0c0,0.1,0,0.3,0.2,0.4l0,0c0,0.1,0,0.3,0.2,0.4l0,0
			c0,0.1,0,0.3,0.2,0.4l0,0c0,0.1,0,0.3,0.2,0.4l0,0c0,0.3,0,0.5,0.3,0.7c0.8,1.7,1.9,3.4,1.9,5.4c0,1.3-0.4,2.5-1.1,3.6
			C808.7,298.4,807.5,299,806.2,299.4z"/>
		<path fill="#5FBBA1" d="M808.8,288.1c-0.3-0.2-0.3-0.4-0.3-0.7C808.7,287.6,808.8,287.8,808.8,288.1z"/>
		<path fill="#5FBBA1" d="M807.4,285.3c-0.2-0.1-0.2-0.2-0.2-0.4C807.4,285,807.4,285.1,807.4,285.3z"/>
		<path fill="#5FBBA1" d="M807.6,285.6c-0.2-0.1-0.2-0.2-0.2-0.4C807.5,285.4,807.6,285.5,807.6,285.6z"/>
		<path fill="#5FBBA1" d="M807.8,286c-0.2-0.1-0.2-0.2-0.2-0.4C807.7,285.7,807.8,285.8,807.8,286z"/>
		<path fill="#5FBBA1" d="M807.9,286.3c-0.2-0.1-0.2-0.2-0.2-0.4C807.9,286.1,807.9,286.2,807.9,286.3z"/>
		<path fill="#5FBBA1" d="M808.1,286.7c-0.2-0.1-0.2-0.2-0.2-0.4C808.1,286.4,808.1,286.6,808.1,286.7z"/>
		<path fill="#5FBBA1" d="M808.3,287c-0.2-0.1-0.2-0.2-0.2-0.4C808.2,286.8,808.3,286.9,808.3,287z"/>
		<path fill="#5FBBA1" d="M808.5,287.4c-0.2-0.1-0.2-0.2-0.2-0.4C808.3,287.2,808.4,287.3,808.5,287.4z"/>
		<path fill="#5FBBA1" d="M807.2,284.9c-0.1-0.1-0.1-0.1-0.2-0.2C807.1,284.8,807.2,284.9,807.2,284.9z"/>
	</g>
	<g>
		<path fill="#B3C1A7" d="M814.7,293.7c2.3-5.3,5.1-10.3,7.8-15.4c0.8-1.6,1.8-3.2,2.7-4.9c0.2-0.3,0.2-0.7,0.2-1.1
			c0-2.6,0-5.2,0-7.8c0-0.5-0.2-0.9-0.5-1.3c-0.4-0.4-0.9-0.6-0.9-1.3c4.1,0,8.2,0,12.3,0c-0.2,0.6-0.7,0.9-1.1,1.3
			c-0.3,0.3-0.4,0.5-0.4,0.9c0,2.8,0,5.6,0,8.4c0,0.9,0.5,1.5,0.8,2.3c2,4.3,4.1,8.5,6.1,12.8c0.9,2,2.1,3.9,2.6,6.1
			c0.6,2.7-1,6.9-5.5,6.9c-6.1,0-12.2,0-18.3,0c-2.8,0-4.6-1.3-5.5-4c-0.1-0.2-0.1-0.5-0.3-0.6C814.7,295.2,814.7,294.5,814.7,293.7
			z M833.8,262.3c-0.3,0-0.6,0.1-0.9,0.1c-2.3,0-4.6,0-6.9,0c0,0.3,0.2,0.4,0.3,0.5c0.6,0.5,0.7,1.1,0.7,1.8c0,2.6,0,5.2,0,7.8
			c0,0.5-0.1,0.9-0.3,1.3c-0.6,1.2-1.1,2.4-1.6,3.7c2.9,0,5.7,0,8.6,0c0,0.1,0.1,0.1,0.1,0.2c-3,0-5.9,0-8.9,0c-0.3,0-0.5,0-0.8,0
			c0.4-1.3,1.2-2.5,1.8-3.7c0.2-0.5,0.3-0.9,0.3-1.4c0-2.6-0.1-5.2,0-7.8c0-1-0.5-1.6-1.1-2.2c-0.1-0.1-0.3-0.3-0.4-0.1
			c-0.1,0.2,0.1,0.3,0.2,0.4c0.3,0.3,0.6,0.6,0.6,1.2c0,2.9,0,5.8,0,8.7c0,0.3-0.1,0.6-0.2,0.8c-1,1.7-1.9,3.4-2.8,5.1
			c-2.3,4.4-4.5,8.7-6.7,13.1c-0.6,1.1-0.8,2.2-0.8,3.5c0.1,2.3,1.8,4.9,4.9,4.9c6.3,0,12.6,0,18.9,0c0.5,0,1-0.1,1.5-0.2
			c2.8-0.8,4.3-4.5,3-7.5c-1.4-3-2.8-6-4.2-9c-1.4-2.9-2.9-5.9-4.2-8.8c-0.4-0.8-0.8-1.5-0.8-2.5c0.1-2.4,0.1-4.8,0-7.2
			c0-1.1,0.2-1.9,1.1-2.6c0,0,0-0.1,0-0.2C834.8,262.3,834.3,262.3,833.8,262.3z"/>
		<path fill="#41B78A" d="M825.1,277.7c3,0,5.9,0,8.9,0c1.5,3.4,3,6.8,4.5,10.2c0.8,2,1.9,3.9,2.5,5.9c0.6,1.8,0.2,3.1-1.2,4.1
			c-0.7,0.5-1.6,0.8-2.4,1c-1.7,0.3-3.4,0.4-5.1,0.6c-0.5,0-1,0.1-1.5,0.1c-3,0-6-0.1-9-0.8c-3.4-0.7-4.6-2.5-3.4-5.6
			c1.2-3,2.5-5.8,3.8-8.7C823.2,282.2,824.1,279.9,825.1,277.7z"/>
		<path fill="#E7FAD5" d="M833.9,277.5c-2.8,0-5.7,0-8.6,0c0.6-1.3,1.1-2.5,1.6-3.7c0.2-0.4,0.3-0.8,0.3-1.3c0-2.6,0-5.2,0-7.8
			c0-0.7-0.1-1.3-0.7-1.8c-0.1-0.1-0.3-0.2-0.3-0.5c2.3,0,4.6,0,6.9,0c0,0.2-0.1,0.3-0.2,0.4c-0.6,0.4-0.7,1.1-0.7,1.8
			c0,2.6,0,5.1,0,7.7c0,0.7,0.1,1.3,0.4,1.9C833,275.3,833.4,276.4,833.9,277.5z"/>
		<path fill="#E4F6D2" d="M833.8,262.3c0.5,0,1,0,1.5,0c0,0.1,0,0.2,0,0.2c-0.9,0.6-1.1,1.5-1.1,2.6c0.1,2.4,0.1,4.8,0,7.2
			c0,1,0.4,1.7,0.8,2.5c1.4,3,2.8,5.9,4.2,8.8c1.4,3,2.8,6,4.2,9c1.3,2.9-0.2,6.6-3,7.5c-0.5,0.1-1,0.2-1.5,0.2
			c-6.3,0-12.6,0-18.9,0c-3.1,0-4.8-2.6-4.9-4.9c-0.1-1.2,0.2-2.4,0.8-3.5c2.3-4.4,4.5-8.8,6.7-13.1c0.9-1.7,1.9-3.4,2.8-5.1
			c0.2-0.3,0.2-0.5,0.2-0.8c0-2.9,0-5.8,0-8.7c0-0.6-0.3-0.8-0.6-1.2c-0.1-0.1-0.3-0.2-0.2-0.4c0.1-0.2,0.3,0,0.4,0.1
			c0.6,0.6,1.2,1.1,1.1,2.2c-0.1,2.6,0,5.2,0,7.8c0,0.5-0.1,1-0.3,1.4c-0.6,1.2-1.4,2.4-1.8,3.7c-0.3,0.2-0.5,0.6-0.7,0.9
			c-1.5,2.8-3,5.6-4.5,8.4c-0.5,1-1.1,2.1-1.7,3.1c-0.6,1.1-1.3,2.2-1.6,3.4c-0.8,3,1.3,6.6,5,6.4c0.2,0.2,0.5,0.1,0.7,0.1
			c5.4,0,10.8,0,16.2,0c0.6,0,1.1-0.1,1.7-0.3c1.1-0.4,2.2-0.9,2.9-2c0.6-1,0.9-2,0.9-3c0-1.7-0.9-3.1-1.6-4.5
			c0-0.2-0.1-0.4-0.2-0.6l0,0c0-0.1-0.1-0.2-0.1-0.3l0,0c0-0.1,0-0.2-0.1-0.3l0,0c0-0.1,0-0.2-0.1-0.3l0,0c0-0.1,0-0.2-0.1-0.3l0,0
			c0-0.1,0-0.2-0.1-0.3l0,0c0-0.1,0-0.2-0.1-0.3l0,0c0-0.1,0-0.2-0.1-0.3l0,0c-0.1-0.1-0.1-0.1-0.2-0.2c0,0,0-0.1,0-0.1
			c-1.5-3-3-6-4.4-9c-0.2-0.4-0.5-0.5-0.9-0.5c-0.6-1.3-1.2-2.5-1.8-3.8c-0.2-0.4-0.3-0.8-0.3-1.2c0-2.6,0-5.1,0-7.7
			c0-0.9,0-1.8,0.9-2.4C833.8,262.5,833.8,262.4,833.8,262.3z"/>
		<path fill="#469D82" d="M820.9,299.8c-3.7,0.2-5.8-3.4-5-6.4c0.3-1.2,1-2.3,1.6-3.4c0.6-1,1.1-2.1,1.7-3.1c1.5-2.8,3-5.6,4.5-8.4
			c0.2-0.3,0.4-0.6,0.7-0.9c0.3,0,0.5,0,0.8,0c-1,2.3-1.9,4.6-2.9,6.9c-1.3,2.9-2.7,5.8-3.8,8.7c-1.2,3,0,4.8,3.4,5.6
			c2.9,0.6,5.9,0.8,9,0.8c-0.3,0.2-0.6,0.1-0.9,0.1C826.9,299.7,823.9,299.8,820.9,299.8z"/>
		<path fill="#FDFDFD" d="M833.8,262.3c0,0.1-0.1,0.3-0.1,0.3c-0.9,0.6-0.9,1.5-0.9,2.4c0,2.6,0,5.1,0,7.7c0,0.4,0.1,0.8,0.3,1.2
			c0.6,1.2,1.2,2.5,1.8,3.8c2.2,4.6,4.4,9.3,6.6,13.9c0.5,1,1.1,1.9,1.1,3c0.1,2-1.1,3.8-3.3,4.7c-0.9,0.3-1.9,0.4-2.9,0.4
			c-1.2-0.1-2.3,0-3.4-0.1c-0.3,0-0.5,0.1-0.8-0.1c1.7-0.1,3.4-0.3,5.1-0.6c0.9-0.2,1.7-0.5,2.4-1c1.4-1,1.8-2.2,1.2-4.1
			c-0.7-2-1.7-3.9-2.5-5.9c-1.5-3.4-3-6.8-4.5-10.2c0-0.1-0.1-0.1-0.1-0.2c-0.5-1.1-0.9-2.2-1.4-3.3c-0.3-0.6-0.4-1.2-0.4-1.9
			c0-2.6,0-5.1,0-7.7c0-0.7,0-1.3,0.7-1.8c0.1-0.1,0.2-0.3,0.2-0.4C833.2,262.3,833.5,262.3,833.8,262.3z"/>
		<path fill="#B3C1A7" d="M832.2,299.5c0.2,0.2,0.5,0.1,0.8,0.1c1.1,0.1,2.3,0,3.4,0.1c0.9,0.1,1.9-0.1,2.9-0.4
			c0.1,0.1,0.1,0.2,0.2,0.3c-0.5,0.2-1.1,0.3-1.7,0.3c-5.4,0-10.8,0-16.2,0c-0.2,0-0.5,0.1-0.7-0.1c3,0,6,0,8.9,0
			c0.3,0,0.6,0.1,0.9-0.1C831.2,299.6,831.7,299.5,832.2,299.5z"/>
		<path fill="#73E3C4" d="M839.5,299.6c-0.1-0.1-0.1-0.2-0.2-0.3c2.1-0.9,3.4-2.8,3.3-4.7c-0.1-1.1-0.7-2.1-1.1-3
			c-2.2-4.6-4.4-9.3-6.6-13.9c0.4-0.1,0.7,0.1,0.9,0.5c1.5,3,2.9,6,4.4,9c0,0,0,0.1,0,0.1c0.1,0.1,0.1,0.1,0.2,0.2l0,0
			c0,0.1,0,0.2,0.1,0.3l0,0c0,0.1,0,0.2,0.1,0.3l0,0c0,0.1,0,0.2,0.1,0.3l0,0c0,0.1,0,0.2,0.1,0.3l0,0c0,0.1,0,0.2,0.1,0.3l0,0
			c0,0.1,0,0.2,0.1,0.3l0,0c0,0.1,0,0.2,0.1,0.3l0,0c0,0.2,0,0.4,0.2,0.6c0.7,1.4,1.6,2.8,1.6,4.5c0,1.1-0.3,2.1-0.9,3
			C841.6,298.7,840.6,299.2,839.5,299.6z"/>
		<path fill="#5FBBA1" d="M841.7,290.1c-0.2-0.1-0.3-0.3-0.2-0.6C841.6,289.7,841.7,289.9,841.7,290.1z"/>
		<path fill="#5FBBA1" d="M840.5,287.7c-0.1-0.1-0.1-0.2-0.1-0.3C840.5,287.5,840.5,287.6,840.5,287.7z"/>
		<path fill="#5FBBA1" d="M840.7,288c-0.1-0.1-0.1-0.2-0.1-0.3C840.6,287.8,840.7,287.9,840.7,288z"/>
		<path fill="#5FBBA1" d="M840.8,288.3c-0.1-0.1-0.1-0.2-0.1-0.3C840.8,288.1,840.8,288.2,840.8,288.3z"/>
		<path fill="#5FBBA1" d="M841,288.6c-0.1-0.1-0.1-0.2-0.1-0.3C840.9,288.4,841,288.5,841,288.6z"/>
		<path fill="#5FBBA1" d="M841.1,288.9c-0.1-0.1-0.1-0.2-0.1-0.3C841.1,288.7,841.1,288.8,841.1,288.9z"/>
		<path fill="#5FBBA1" d="M841.3,289.2c-0.1-0.1-0.1-0.2-0.1-0.3C841.2,289,841.3,289.1,841.3,289.2z"/>
		<path fill="#5FBBA1" d="M841.4,289.5c-0.1-0.1-0.1-0.2-0.1-0.3C841.3,289.3,841.4,289.4,841.4,289.5z"/>
		<path fill="#5FBBA1" d="M840.4,287.4c-0.1-0.1-0.1-0.1-0.2-0.2C840.3,287.3,840.3,287.4,840.4,287.4z"/>
	</g>
</g>
<g>
	<g>
		<path opacity="0.76" fill="#5BA4B9" d="M434,703C434,703,434,702.9,434,703c0-5.5-20.8-9.8-46.6-9.8c-25.7,0-46.6,4.4-46.6,9.7
			c0,0.3,0.1,0.5,0.2,0.8v8.4l0,0c0,0-0.1,0.1-0.1,0.1c0,3.8,17,6.9,39.2,7.5c-0.1,0.4-0.1,0.8-0.1,1.2V753c0,3.9,3.1,0,7,0l0,0
			c3.9,0,7,3.9,7,0v-32.2c0-0.4,0-0.8-0.1-1.1c22.6-0.5,39.9-3.7,40-7.5l0.1,0L434,703L434,703z"/>
		<g>
			<path fill="#6A0F6D" d="M434,695h-93v9.1l0,0c0,0-0.1,0.1-0.1,0.1c0,4.2,20.8,7.6,46.5,7.6c25.7,0,46.4-3.4,46.4-7.6l0.1,0V695z"
				/>
			<ellipse fill="#4AAAC4" cx="387.4" cy="694.9" rx="46.6" ry="9.7"/>
		</g>
		<path fill="#4C0D4F" d="M395,691.2c0,3.8-3.1,6.8-6.8,6.8h-0.3c-3.8,0-6.8-3.1-6.8-6.8V491.8c0-3.8,3.1-6.8,6.8-6.8h0.3
			c3.8,0,6.8,3.1,6.8,6.8V691.2z"/>
		<path fill="#6A0F6D" d="M470,466H305v16.4l0.2,0c0,0,0,0.1,0,0.1c0,7.4,36.8,13.4,82.2,13.4c45.4,0,82.1-6,82.2-13.4l0.5,0V466z"
			/>
		<ellipse fill="#78CEEE" cx="387.4" cy="466.2" rx="82.2" ry="17.2"/>
		<g>
			<defs>
				<ellipse id="SVGID_4_" cx="387.4" cy="466.2" rx="82.2" ry="17.2"/>
			</defs>
			<clipPath id="SVGID_20_">
				<use xlink:href="#SVGID_4_"  overflow="visible"/>
			</clipPath>
			<polygon clip-path="url(#SVGID_20_)" fill="#4D9DB3" points="447,456 426,485 319,482 304,479 333,453 382,442 			"/>
		</g>
		<path fill="#78CEEE" d="M341,704.1"/>
	</g>
	<g>
		<path opacity="0.76" fill="#5BA4B9" d="M687.3,703C687.3,703,687.3,702.9,687.3,703c0-5.5-20.8-9.8-46.6-9.8
			c-25.7,0-46.6,4.4-46.6,9.7c0,0.3,0.1,0.5,0.2,0.8v8.4l0,0c0,0-0.1,0.1-0.1,0.1c0,3.8,17,6.9,39.2,7.5c-0.1,0.4-0.1,0.8-0.1,1.2
			V753c0,3.9,3.1,0,7,0l0,0c3.9,0,7,3.9,7,0v-32.2c0-0.4,0-0.8-0.1-1.1c22.6-0.5,39.9-3.7,40-7.5l0.1,0L687.3,703L687.3,703z"/>
		<g>
			<path fill="#6A0F6D" d="M687,695h-93v9.1l0.1,0c0,0,0,0.1,0,0.1c0,4.2,20.9,7.6,46.6,7.6c25.7,0,46.2-3.4,46.3-7.6l0,0V695z"/>
			<ellipse fill="#4AAAC4" cx="640.8" cy="694.9" rx="46.6" ry="9.7"/>
		</g>
		<path fill="#4C0D4F" d="M648,691.2c0,3.8-3.1,6.8-6.8,6.8h-0.3c-3.8,0-6.8-3.1-6.8-6.8V491.8c0-3.8,3.1-6.8,6.8-6.8h0.3
			c3.8,0,6.8,3.1,6.8,6.8V691.2z"/>
		<path fill="#6A0F6D" d="M723,466H558v16.4l0.3,0c0,0,0.1,0.1,0.1,0.1c0,7.4,36.8,13.4,82.3,13.4c45.4,0,82-6,82.1-13.4l0.3,0V466z
			"/>
		<ellipse fill="#78CEEE" cx="640.7" cy="466.2" rx="82.2" ry="17.2"/>
		<g>
			<defs>
				<ellipse id="SVGID_3_" cx="640.7" cy="466.2" rx="82.2" ry="17.2"/>
			</defs>
			<clipPath id="SVGID_21_">
				<use xlink:href="#SVGID_3_"  overflow="visible"/>
			</clipPath>
			<polygon clip-path="url(#SVGID_21_)" fill="#4D9DB3" points="700.4,456 679.4,485 572.4,482 557.4,479 586.4,453 635.4,442 			
				"/>
		</g>
		<path fill="#78CEEE" d="M594.4,704.1"/>
	</g>
	<g>
		<path opacity="0.76" fill="#5BA4B9" d="M940.7,703C940.7,703,940.7,702.9,940.7,703c0-5.5-20.8-9.8-46.6-9.8
			c-25.7,0-46.6,4.4-46.6,9.7c0,0.3,0.1,0.5,0.2,0.8v8.4l0,0c0,0-0.1,0.1-0.1,0.1c0,3.8,17,6.9,39.2,7.5c-0.1,0.4-0.1,0.8-0.1,1.2
			V753c0,3.9,3.1,0,7,0l0,0c3.9,0,7,3.9,7,0v-32.2c0-0.4,0-0.8-0.1-1.1c22.6-0.5,39.9-3.7,40-7.5l0.1,0L940.7,703L940.7,703z"/>
		<g>
			<path fill="#6A0F6D" d="M941,695h-93v9.1l-0.2,0c0,0-0.2,0.1-0.2,0.1c0,4.2,20.8,7.6,46.5,7.6c25.7,0,46.5-3.4,46.6-7.6l0.3,0
				V695z"/>
			<ellipse fill="#4AAAC4" cx="894.1" cy="694.9" rx="46.6" ry="9.7"/>
		</g>
		<path fill="#4C0D4F" d="M902,691.2c0,3.8-3.1,6.8-6.8,6.8h-0.3c-3.8,0-6.8-3.1-6.8-6.8V491.8c0-3.8,3.1-6.8,6.8-6.8h0.3
			c3.8,0,6.8,3.1,6.8,6.8V691.2z"/>
		<path fill="#6A0F6D" d="M977,466H812v16.4l0,0c0,0-0.1,0.1-0.1,0.1c0,7.4,36.8,13.4,82.2,13.4c45.4,0,82.3-6,82.4-13.4l0.6,0V466z
			"/>
		<ellipse fill="#78CEEE" cx="894" cy="466.2" rx="82.2" ry="17.2"/>
		<g>
			<defs>
				<ellipse id="SVGID_2_" cx="894" cy="466.2" rx="82.2" ry="17.2"/>
			</defs>
			<clipPath id="SVGID_22_">
				<use xlink:href="#SVGID_2_"  overflow="visible"/>
			</clipPath>
			<polygon clip-path="url(#SVGID_22_)" fill="#4D9DB3" points="953.7,456 932.7,485 825.7,482 810.7,479 839.7,453 888.7,442 			
				"/>
		</g>
		<path fill="#78CEEE" d="M847.7,704.1"/>
	</g>
	<g>
		<path opacity="0.76" fill="#5BA4B9" d="M1194,703C1194,703,1194,702.9,1194,703c0-5.5-20.8-9.8-46.6-9.8s-46.6,4.4-46.6,9.7
			c0,0.3,0.1,0.5,0.2,0.8v8.4l0,0c0,0-0.1,0.1-0.1,0.1c0,3.8,17,6.9,39.2,7.5c-0.1,0.4-0.1,0.8-0.1,1.2V753c0,3.9,3.1,0,7,0l0,0
			c3.9,0,7,3.9,7,0v-32.2c0-0.4,0-0.8-0.1-1.1c22.6-0.5,39.9-3.7,40-7.5l0.1,0L1194,703L1194,703z"/>
		<g>
			<path fill="#6A0F6D" d="M1194,695h-93v9.1l0,0c0,0-0.1,0.1-0.1,0.1c0,4.2,20.8,7.6,46.5,7.6c25.7,0,46.4-3.4,46.4-7.6l0.1,0V695z
				"/>
			<ellipse fill="#4AAAC4" cx="1147.4" cy="694.9" rx="46.6" ry="9.7"/>
		</g>
		<path fill="#4C0D4F" d="M1155,691.2c0,3.8-3.1,6.8-6.8,6.8h-0.3c-3.8,0-6.8-3.1-6.8-6.8V491.8c0-3.8,3.1-6.8,6.8-6.8h0.3
			c3.8,0,6.8,3.1,6.8,6.8V691.2z"/>
		<path fill="#6A0F6D" d="M1230,466h-165v16.4l0.2,0c0,0,0,0.1,0,0.1c0,7.4,36.8,13.4,82.2,13.4c45.4,0,82.1-6,82.2-13.4l0.5,0V466z
			"/>
		<ellipse fill="#78CEEE" cx="1147.4" cy="466.2" rx="82.2" ry="17.2"/>
		<g>
			<defs>
				<ellipse id="SVGID_1_" cx="1147.4" cy="466.2" rx="82.2" ry="17.2"/>
			</defs>
			<clipPath id="SVGID_23_">
				<use xlink:href="#SVGID_1_"  overflow="visible"/>
			</clipPath>
			<polygon clip-path="url(#SVGID_23_)" fill="#4D9DB3" points="1207,456 1186,485 1079,482 1064,479 1093,453 1142,442 			"/>
		</g>
		<path fill="#78CEEE" d="M1101,704.1"/>
	</g>
</g>
<g>
	<g>
		<path fill="#299AB5" d="M852.6,112.1c1.9,0,1.9-3,0-3C850.7,109.1,850.7,112.1,852.6,112.1L852.6,112.1z"/>
	</g>
</g>
</svg>