<!-- Generator: Adobe Illustrator 21.0.0, SVG Export Plug-In  -->
<svg version="1.1"
	 xmlns="http://www.w3.org/2000/svg" xmlns:xlink="http://www.w3.org/1999/xlink" xmlns:a="http://ns.adobe.com/AdobeSVGViewerExtensions/3.0/"
	 x="0px" y="0px" width="114.016px" height="427.873px" viewBox="0 0 114.016 427.873"
	 style="overflow:scroll;enable-background:new 0 0 114.016 427.873;" xml:space="preserve">
<style type="text/css">
	.st0{fill:none;stroke:#5B3B2E;stroke-width:2;stroke-miterlimit:10;}
	.st1{fill:#35A075;stroke:#156445;stroke-miterlimit:10;}
	.st2{fill:#41B78A;stroke:#156445;stroke-width:0.5669;stroke-miterlimit:10;}
	.st3{fill:#F7B399;stroke:#80523C;stroke-width:0.5669;stroke-miterlimit:10;}
	.st4{fill:#2E8E66;stroke:#156445;stroke-width:0.5669;stroke-miterlimit:10;}
	.st5{fill:#167B43;}
	.st6{fill:#1B422C;}
	.st7{fill:#F0F0F0;}
	.st8{fill:#3D403E;}
	.st9{fill:#F6F9F6;}
	.st10{fill:#1F7C71;}
	.st11{fill:#52A899;}
	.st12{fill:none;stroke:#80523C;stroke-miterlimit:10;}
	.st13{fill:#CC6049;}
	.st14{fill:#80523C;}
	.st15{opacity:0.6;fill:#CC6049;}
	.st16{fill:#26633F;}
	.st17{opacity:0.3;fill:#CC6049;}
	.st18{opacity:0.4;fill:#FFFFFF;}
	.st19{fill:#EEF0F0;}
	.st20{opacity:0.4;fill:#359671;}
</style>
<defs>
</defs>
<g>
	<path class="st0" d="M102.981,214.583c1.06-0.427,2.023-0.583,2.904-0.29c0,0-10.954-15.864-8.31-25.874
		c2.216-8.388,1.645-36.049-0.709-59.98c3.547,1.365,4.397,5.922,4.397,5.922s0.421-0.869-3.69-10.467
		c-0.529-1.236-1.053-2.341-1.568-3.357c-0.214-1.781-0.438-3.525-0.673-5.218l0.921,0.201l-1.296-11.924
		c2.975-4.792,6.237-11.743,6.073-19.032c-0.21-9.308,2.726-25.39-16.124-39.382c-1.638-1.216-3.255-2.232-4.846-3.072
		c-3.472-6.848-6.848-12.899-6.848-12.899c-0.383-0.102-0.769-0.173-1.156-0.225l-0.166-1.664c0,0-0.189-18.697,0-20.963
		c0.189-2.266-2.455-2.455-3.966-4.344C66.414,0.128,57.727,1.45,53.572,1.45s-7.177,3.022-7.554,5.855
		c-0.378,2.833,3.588,0.944,5.666,0s4.344,7.365,4.721,9.443c0.378,2.077-3.399-1.7-5.666-4.155c-2.266-2.455-2.833,0.567-1.7,2.833
		c1.133,2.266,14.353,14.731,14.353,14.731l2.114-0.23c-2.459,0.919-4.191,2.118-4.191,2.118l2.195,7.037
		c-7.892,1.181-14.395,5.816-18.701,9.726c0,0-11.597,10.399-14.582,25.159c-0.002,0.003-0.003,0.006-0.005,0.009l-0.159,0.862
		c0-0.003,0.004-0.012,0.005-0.016c-0.46,2.596-0.654,5.316-0.464,8.137l-0.001,0.002l0.003,0.011
		c0.085,1.249,0.241,2.517,0.484,3.801c3.435,18.168,9.969,21.793,11.763,22.458l-0.93-0.077c0,0,0,2.438,1.465,3.588
		c-0.075,0.197-0.153,0.377-0.224,0.588c0,0-5.773,8.222,1.665,12.594c0,0,3.199,1.531,6.682,2.138
		c-0.494,0.228-0.968,0.442-1.472,0.678c0,0-14.164,15.297-17.375,17.375c-3.211,2.077-8.876,9.065-9.065,5.666
		c-0.189-3.399-2.644-27.762-2.644-27.762s-1.221-0.72-2.995-1.215l2.617-0.107c0,0,5.288-11.709,5.288-15.109
		c0-3.399,2.644-7.176-4.91-8.688c-7.554-1.511-8.688-2.266-10.576-1.888c-1.889,0.378-8.688,4.155-5.288,6.421
		c3.399,2.266,5.666-5.288,6.421,4.155l-0.189,15.487c0,0-3.966,39.093-3.777,42.116c0.189,3.021,4.533,15.109,11.709,13.975
		c7.177-1.133,30.406-19.075,32.295-19.075c1.889,0,1.007,15.612,7.177,27.007c3.867,7.141-3.966,14.731-3.966,14.731
		s0.857,0.373,2.226,1.076l-14.118,11.841c-0.126-0.049-0.194-0.075-0.194-0.075s-23.041-20.586-26.44-21.152
		c-3.399-0.566-15.242,4.005-14.164,12.087c0.632,4.738,2.371,9.575,4.752,14.295c-0.227-0.028-0.429-0.013-0.597,0.058
		c0,0,8.164,18.725,14.445,34.242l1.167,3.089l0.182,0.267c3.061,7.679,5.43,14.085,5.736,16.227
		c0.944,6.61,6.61,28.518,6.61,28.518c-28.14,33.806-13.031,34.939-8.499,29.651c4.533-5.288,24.174-17.375,24.929-24.174
		c0.755-6.799-3.966-15.109-3.966-15.109s-1.654-5.672-3.048-12.642c-0.825-4.654-1.583-9.704-1.846-13.75
		c-0.094-2.254-0.024-4.342,0.271-6.118c2.783,1.829,6.271,3.817,9.91,5.246c3.597,3.651,8.438,6.747,13.896,7.639
		c0.542,2.127,1.237,4.707,2.081,7.559l0.078,0.357c0,0,0.017-0.007,0.024-0.01c1.907,6.402,4.552,14.115,7.908,21.162
		c7.531,15.815,17.687,58.091,19.808,87.729c-1.584,5.6-3.99,7.61-17.164,18.788c-12.465,10.576-5.786,20.603-1.511,17.753
		c14.731-9.821,27.951-16.242,31.351-23.418c3.399-7.177,1.133-13.976,1.133-13.976s-0.859-10.091-1.537-20.763
		c-0.283-9.273-0.587-19.434-0.729-22.108c0.567-9.632-4.533-29.651-10.576-35.505l4.101-41.938
		c0.622-4.147,1.322-8.132,2.104-11.699c6.946-0.449,10.838,2.975,10.918,0.819C113.435,246.037,105.216,221.119,102.981,214.583z
		 M58.465,116.933c0,0-0.005-0.007-0.005-0.008c0.027,0.01,0.051,0.022,0.078,0.032c0.89,0.396,2.054,0.922,3.457,1.312
		c0.236,0.408,0.459,0.847,0.665,1.311l0.543,2.172c0,0,0.076,0.018,0.206,0.046c0.046,0.194,0.096,0.385,0.134,0.585
		c-1.45,0.589-2.984,1.233-4.556,1.904C59.417,122.57,59.333,120.197,58.465,116.933z"/>
	<g>
		<path class="st1" d="M45.829,292.67c0,0-6.61-22.663-4.533-33.05c0,0-31.162-41.738-36.072-39.66c0,0,20.586,47.215,21.53,53.825
			c0.944,6.61,6.61,28.518,6.61,28.518c-28.14,33.806-13.031,34.939-8.499,29.651c4.533-5.288,24.174-17.375,24.929-24.174
			C50.55,300.98,45.829,292.67,45.829,292.67z"/>
		<path class="st2" d="M108.718,388.988c0,0-2.833-33.239-2.266-42.871c0.567-9.632-4.533-29.651-10.576-35.505
			c0,0,2.455-45.893,8.688-62.512c0,0,3.211,0,1.511-4.721c-1.7-4.721-64.401-28.706-64.401-28.706s-23.041-20.586-26.44-21.152
			c-3.399-0.567-15.242,4.005-14.164,12.087c3.022,22.663,31.162,47.592,35.505,51.181c4.344,3.588,17.753,12.654,27.007,10.198
			c0,0,3.966,19.264,11.52,35.128c7.531,15.815,17.687,58.091,19.808,87.728c-1.584,5.6-3.99,7.61-17.164,18.788
			c-12.465,10.576-5.786,20.602-1.511,17.753c14.731-9.821,27.951-16.242,31.351-23.418
			C110.985,395.787,108.718,388.988,108.718,388.988z"/>
		<path class="st3" d="M63.392,30.156c0,0-13.22-12.465-14.353-14.731c-1.133-2.266-0.567-5.288,1.7-2.833
			c2.266,2.455,6.043,6.232,5.666,4.155c-0.378-2.077-2.644-10.387-4.722-9.443c-2.077,0.944-6.044,2.833-5.666,0
			c0.378-2.833,3.4-5.855,7.554-5.855s12.842-1.322,14.353,0.567c1.511,1.889,4.155,2.077,3.966,4.344
			c-0.189,2.266,0,20.963,0,20.963l0.189,1.889L63.392,30.156z"/>
		<path class="st2" d="M67.736,52.631l-6.421-20.586c0,0,6.232-4.344,11.898-2.833c0,0,20.751,37.19,12.276,31.539
			C84.922,60.374,68.869,52.631,67.736,52.631z"/>
		<polygon class="st4" points="94.365,98.145 96.254,115.52 84.167,112.876 82.845,107.777 		"/>
		<path class="st2" d="M56.593,202.395l-31.225,26.188c0,0,16.62,20.145,20.145,28.706c4.104,9.966,21.427,24.978,38.275,9.065
			c18.131-17.123,29.076-4.931,29.21-8.562c0.504-13.598-10.576-44.822-10.576-44.822S69.058,198.429,56.593,202.395z"/>
		<path class="st3" d="M74.434,118.274l0.29-7.538l-16.116,3.525c0,0,3.965,2.977,4.935,8.123
			c-4.295,1.744-9.115,3.833-14.504,6.356c0,0-5.288,10.198,1.133,10.198c6.421,0,58.798,7.051,39.66-24.929
			C89.833,114.01,84.809,114.692,74.434,118.274z"/>
		<path class="st3" d="M19.577,122.697c0,0,5.288-11.709,5.288-15.109c0-3.399,2.644-7.177-4.91-8.688
			c-7.554-1.511-8.687-2.266-10.576-1.889c-1.889,0.378-8.688,4.155-5.288,6.421c3.4,2.266,5.666-5.288,6.421,4.155l-0.189,15.486
			L19.577,122.697z"/>
		<path class="st2" d="M105.886,214.293c0,0-10.954-15.864-8.31-25.874c2.644-10.009,1.322-47.466-2.266-73.277l-5.477-1.133
			c0,0,4.344,10.387,1.511,14.353c-2.833,3.966-29.651,8.876-42.304,0.378c0,0-14.164,15.298-17.375,17.375
			c-3.211,2.077-8.876,9.065-9.065,5.666c-0.189-3.399-2.644-27.762-2.644-27.762s-5.099-3.022-9.632-0.944
			c0,0-3.966,39.094-3.777,42.115c0.189,3.022,4.533,15.109,11.709,13.976c7.177-1.133,30.406-19.075,32.295-19.075
			c1.889,0,1.007,15.612,7.177,27.007c3.867,7.141-3.966,14.731-3.966,14.731s9.193,3.987,15.864,10.765
			C89.329,232.613,99.653,212.216,105.886,214.293z"/>
		<path class="st2" d="M63.204,121.753c0,0,10.387,2.455,13.787-0.378l-1.888-5.666l-12.654,3.022L63.204,121.753z"/>
		<g>
			<path class="st5" d="M42.164,113.331c0,0-5.773,8.222,1.665,12.594c0,0,19.511,9.346,14.636-8.991
				C58.465,116.934,46.954,99.255,42.164,113.331z"/>
			<path class="st5" d="M90.265,110.01c0,0,11.064-12.172,10.766-25.446c-0.21-9.308,2.726-25.39-16.124-39.382
				c-17.372-12.895-32.318-3.44-40.098,3.625c0,0-18.726,16.777-14.719,37.966c4.006,21.188,12.234,22.6,12.234,22.6
				s4.315,3.108,5.46,0.768l36.907-3.3C84.69,106.842,88.333,113.309,90.265,110.01z"/>
			<path class="st5" d="M88.451,111.01c0,0,4.403,1.856,9.123,12.884c4.111,9.598,3.69,10.467,3.69,10.467s-1.436-7.809-8.48-6.059
				c0,0,2.879,20.892-9.866,19.73c0,0,3.147-4.361,0-5.815c0,0-12.457-18.519-10.714-28.89
				C72.204,113.327,79.687,103.941,88.451,111.01z"/>
			<path class="st3" d="M92.76,85.87c-1.561-0.975-2.614-0.614-3.271-0.038c0.003-2.037-0.034-3.267-0.034-3.267
				s-3.955-2.486-7.95-17.376c-1.575-5.881,4.321,11.362-32.86,16.584c-3.391,0.474-6.413,0.579-6.398,2.908
				c0,0,0.291,5.523,0.002,12.214c-0.29,6.689,3.784,15.413,16.29,20.063c2.618,1.165,7.561,3.489,14.249-0.001
				c6.498-3.391,15.171-10.974,16.196-18.869C95.624,98.649,95.586,87.636,92.76,85.87z"/>
			<path class="st6" d="M47.136,109.667l1.827,1.793c-8.045,5.285-8.04-2.305-8.04-2.305L47.136,109.667z"/>
			<path class="st6" d="M85.335,108.062l-2.422,1.992c4.982,8.237,7.352-0.045,7.352-0.045L85.335,108.062z"/>
			<polygon class="st7" points="58.148,105.273 59.244,106.819 65.239,108.066 71.04,106.705 72.785,105.272 71.04,105.027 			"/>
			<path class="st8" d="M75.13,75.658c0.286-0.061,7.54-2.325,10.414,3.41c0,0-1.817-1.995-3.588-2.394
				c-3.848-0.873-6.609,0.793-6.825,0.144C74.913,76.166,74.214,75.853,75.13,75.658z"/>
			<path class="st9" d="M53.413,87.098c0,0,1.155,0.956,1.084,1.684c0,0-1.603,1.226-3.894,1.092
				c-2.291-0.137-4.713,0.414-4.665-2.774c0,0-0.458-0.492,1.336-1.272C49.792,84.735,53.057,85.921,53.413,87.098z"/>
			<path class="st10" d="M52.603,87.994c0,1.318-1.07,1.88-2.387,1.88c-1.318,0-2.387-0.562-2.387-1.88
				c-0.001-2.527,1.069-2.388,2.387-2.388C51.533,85.606,52.603,85.706,52.603,87.994z"/>
			<path class="st11" d="M52.383,88.574c0,0.803-0.65,1.143-1.452,1.143c-0.801,0-1.452-0.34-1.452-1.143
				c0-1.536,0.651-1.452,1.452-1.452C51.733,87.122,52.383,87.184,52.383,88.574z"/>
			<g>
				<path class="st8" d="M45.088,86.388c0.833-0.402,1.723-0.67,2.633-0.859c0.91-0.19,1.853-0.255,2.797-0.172
					c0.931,0.1,1.914,0.344,2.666,0.983c0.765,0.617,1.19,1.532,1.314,2.441c-0.355-0.854-0.847-1.613-1.573-2.09
					c-0.716-0.486-1.591-0.688-2.463-0.771C48.697,85.753,46.887,86.037,45.088,86.388z"/>
			</g>
			<g>
				<path class="st9" d="M72.92,87.096c0,0-1.156,0.956-1.083,1.684c0,0,1.602,1.225,3.893,1.089
					c2.291-0.136,4.711,0.415,4.664-2.774c0,0,0.458-0.493-1.336-1.271C76.541,84.731,73.275,85.919,72.92,87.096z"/>
				<path class="st10" d="M73.729,87.992c0,1.318,1.07,1.878,2.388,1.878c1.318,0,2.386-0.561,2.386-1.879
					c-0.001-2.527-1.069-2.388-2.388-2.388C74.8,85.603,73.729,85.703,73.729,87.992z"/>
				<g>
					<path class="st8" d="M81.245,86.383c-1.799-0.35-3.609-0.634-5.373-0.465c-0.872,0.083-1.747,0.285-2.463,0.772
						c-0.725,0.478-1.217,1.236-1.572,2.09c0.124-0.909,0.548-1.824,1.313-2.442c0.752-0.64,1.735-0.884,2.665-0.984
						c0.944-0.083,1.887-0.019,2.797,0.171C79.521,85.714,80.412,85.982,81.245,86.383z"/>
				</g>
			</g>
			<path class="st11" d="M77.336,88.571c0,0.802-0.65,1.143-1.451,1.143c-0.801,0-1.451-0.341-1.451-1.143
				c0-1.536,0.651-1.452,1.451-1.452C76.687,87.119,77.336,87.18,77.336,88.571z"/>
			<path class="st5" d="M62.412,95.494"/>
			<path class="st12" d="M58.148,102.764"/>
			<g>
				<path class="st13" d="M74.674,104.527c-0.514,0.211-1.034,0.404-1.553,0.602l-0.006,0.002l-0.011,0.002
					c-1.252,0.189-2.494,0.228-3.74,0.307l-3.738,0.113c-2.492,0.018-4.984,0.016-7.476-0.103l-0.029-0.001l-0.013-0.007
					c-0.299-0.165-0.599-0.325-0.892-0.503c0.329,0.095,0.651,0.207,0.974,0.316l-0.042-0.009c2.49-0.152,4.98-0.202,7.469-0.259
					l3.734-0.029c1.242,0.003,2.495,0.016,3.723-0.03l-0.017,0.004C73.596,104.794,74.132,104.651,74.674,104.527z"/>
			</g>
			<path class="st12" d="M59.244,106.076"/>
			<polygon class="st14" points="56.283,104.529 59.244,106.819 58.148,105.273 			"/>
			<polygon class="st14" points="71.04,106.705 74.336,104.702 72.785,105.272 			"/>
			<g>
				<path class="st13" d="M58.705,106.819c1.146,0.057,2.282,0.182,3.416,0.313c1.134,0.133,2.263,0.299,3.39,0.479l-0.095,0.001
					c2.111-0.379,4.23-0.719,6.377-0.908c-2.07,0.6-4.168,1.05-6.274,1.46l-0.046,0.009l-0.049-0.008
					c-1.127-0.176-2.253-0.366-3.372-0.59C60.931,107.35,59.812,107.119,58.705,106.819z"/>
			</g>
			<ellipse class="st15" cx="74.536" cy="96.71" rx="5.404" ry="2.349"/>
			<ellipse class="st15" cx="48.302" cy="95.578" rx="5.404" ry="2.35"/>
			<path class="st6" d="M81.523,63.982c0,0-6.093,13.091-42.838,18.914c0,0,6.81,0.888,22.829-3.823
				C77.531,74.359,81.577,64.853,81.523,63.982z"/>
			<path class="st6" d="M81.523,63.982c0,0,4.347,18.472,13.847,24.796C95.37,88.778,86.488,78.615,81.523,63.982z"/>
			<path class="st6" d="M41.085,82.949c0,0,1.134,4.557,1.149,9.252c0,0,0.508-9.995,1.324-10.153L41.085,82.949z"/>
			<path class="st16" d="M30.063,74.838c0.159-0.862,9.998-21.801,20.781-24.518c0,0-9.764,3.881-20.623,23.656"/>
			<path class="st16" d="M29.603,82.961c0,0,4.112-6.874,7.213-8.125c0,0-6.966,6.519-6.584,10.562L29.603,82.961z"/>
			<path class="st16" d="M76.749,62.575c0,0-8.722,11.392-31.357,14.547C45.392,77.122,66.759,71.636,76.749,62.575z"/>
			<path class="st16" d="M79.556,44.21v4.943l4.707,2.617l-0.801-1.454l2.077-0.001l-1.277-2.328l5.995,2.328
				C90.257,50.316,81.972,43.919,79.556,44.21z"/>
			<path class="st16" d="M43.561,109.154c0,0-7.974-5.953-7.844-11.308c0,0,7.295,10.319,9.68,11.308
				c2.386,0.988,1.739,0.513,1.739,0.513L43.561,109.154z"/>
			<path class="st16" d="M43.561,113.709c0,0-2.739,2.35-1.236,7.282l2.619-5.218c0,0,1.712,0.566,2.272,5.218l-0.001-7.282
				c0,0,2.966,6.161,7.153,5.703l-5.404-7.951L43.561,113.709z"/>
			<path class="st16" d="M86.588,108.558c0,0,6.715-2.325,7.78-4.034l-4.104,5.486L86.588,108.558z"/>
			<path class="st16" d="M84.271,118.799c0,0,5.615,14.692,3.175,24.29C87.446,143.088,95.755,132.325,84.271,118.799z"/>
			<path class="st16" d="M78.165,113.704c0,0-1.999,4.664,1.402,12.226c3.402,7.562,1.985,7.852,1.985,7.852
				s2.033-5.046-0.021-8.921C79.476,120.986,78.893,117.764,78.165,113.704z"/>
			<ellipse class="st17" cx="65.274" cy="94.414" rx="2.269" ry="1.27"/>
			<ellipse class="st18" cx="65.42" cy="91.088" rx="1.153" ry="2.272"/>
			<circle class="st19" cx="49.15" cy="87.302" r="0.748"/>
			<circle class="st19" cx="75.189" cy="87.299" r="0.748"/>
		</g>
		<polyline class="st3" points="62.259,123.075 49.795,128.741 55.649,131.762 		"/>
		<path class="st20" d="M90.084,260.312c0,0,1.259,45.83,1.763,50.362c0.504,4.533,9.317,46.333,9.065,60.687
			c-0.252,14.353,3.777,33.995-26.692,54.391c0,0-0.755,1.763,4.533-1.259c5.288-3.022,24.174-15.109,27.951-21.656
			c3.777-6.547,1.259-13.346,1.007-18.634c-0.252-5.288-1.007-33.365-1.259-38.086c-0.252-4.721-2.77-26.251-10.576-35.505
			l5.288-54.077L90.084,260.312z"/>
		<path class="st20" d="M20.836,257.29l24.677,36.261c0,0-6.421-27.825-4.218-33.932c0,0-24.237-21.467-33.302-36.324L20.836,257.29
			z"/>
		<path class="st20" d="M67.17,280.961c0,0,18.634-7.302,21.656-18.382c0,0-17.375,14.101-23.419,10.324L67.17,280.961z"/>
		<path class="st20" d="M56.342,203.654c0,0,10.576,10.828,12.339,14.857c1.763,4.029,18.382,18.382,33.743-3.525
			c0,0-11.583,8.813-20.145,5.792C73.717,217.756,61.378,202.395,56.342,203.654z"/>
	</g>
</g>
</svg>